<?xml version="1.0" encoding="utf-8"?>
<!-- Generator: Adobe Illustrator 23.0.5, SVG Export Plug-In . SVG Version: 6.00 Build 0)  -->
<svg version="1.1" id="Layer_1" xmlns="http://www.w3.org/2000/svg" xmlns:xlink="http://www.w3.org/1999/xlink" x="0px" y="0px"
	 viewBox="0 0 779.7 598.7" style="enable-background:new 0 0 779.7 598.7;" xml:space="preserve">
<style type="text/css">
	.st0{clip-path:url(#SVGID_2_);}
	.st1{fill:#FFFFFF;}
	.st2{opacity:0.5;fill:#7C7C7C;enable-background:new    ;}
	.st3{opacity:0.49;}
	.st4{fill:#7C7C7C;}
	.st5{fill:#F0AB11;}
	.st6{fill:#FFEECC;}
	.st7{opacity:0.5;}
	.st8{fill:#5D697A;}
	.st9{fill:#536071;}
	.st10{fill:#8897AA;}
	.st11{fill:#16110D;}
	.st12{fill:#80C5E4;}
	.st13{fill:#FFFF71;}
	.st14{fill:#195C87;}
	.st15{fill:#175A84;}
	.st16{fill:#14A369;}
	.st17{fill:#17C482;}
	.st18{fill:#FFBE2E;}
	.st19{fill:#16B272;}
	.st20{fill:#F59A08;}
	.st21{fill:#063A69;}
	.st22{fill:#6E7A89;}
	.st23{fill:#5DA7FC;}
</style>
<g>
	<g>
		<g>
			<defs>
				<rect id="SVGID_1_" x="0.7" y="0" width="779.1" height="598.7"/>
			</defs>
			<clipPath id="SVGID_2_">
				<use xlink:href="#SVGID_1_"  style="overflow:visible;"/>
			</clipPath>
			<g class="st0">
				<g>
					<g>
						<g>
							<polygon class="st1" points="342.9,579 203.9,658.7 202.6,657.8 341.1,578.3 344.7,551.9 475.5,477.4 476.7,478.3 
								346.6,552.5 							"/>
						</g>
						<g>
							<path class="st1" d="M473.9,476.2c1.4-0.9,3.6-0.7,4.7,0.3c1.2,1,1,2.5-0.4,3.3c-1.4,0.9-3.6,0.7-4.7-0.3
								C472.2,478.4,472.4,477,473.9,476.2z"/>
						</g>
						<g>
							<path class="st1" d="M201.1,656.3c-1.6,0.9-1.9,2.5-0.6,3.5c1.3,1,3.6,1.1,5.2,0.2c1.6-0.9,1.8-2.5,0.6-3.5
								C204.9,655.6,202.6,655.4,201.1,656.3z"/>
						</g>
					</g>
					<g>
						<g>
							<polygon class="st1" points="149.6,729.8 68.1,777.2 66.8,776.1 147.8,729.2 150.8,709.2 292,627.7 295.2,605 297.1,605.1 
								293.8,628.3 152.8,709.8 							"/>
						</g>
						<g>
							<path class="st1" d="M65.1,774.7c-1.7,0.9-1.9,2.6-0.6,3.6s3.7,1.1,5.4,0.2c1.7-0.9,1.9-2.6,0.6-3.6
								C69.2,773.8,66.8,773.7,65.1,774.7z"/>
						</g>
					</g>
					<g>
						<g>
							<polygon class="st1" points="100.5,783.9 8.1,838 6.8,836.9 98.5,783.3 103,755.4 105,755.4 							"/>
						</g>
						<g>
							<path class="st1" d="M5.1,835.5c-1.7,1-1.9,2.6-0.6,3.6c1.4,1.1,3.8,1.1,5.5,0.2c1.7-1,1.9-2.6,0.6-3.6
								C9.3,834.5,6.8,834.5,5.1,835.5z"/>
						</g>
					</g>
					<g>
						<g>
							<polygon class="st1" points="379.9,415.8 252,486.1 217.1,483.9 69,564.9 67.7,563.9 216.4,482.6 251.4,484.8 378.7,414.8 
															"/>
						</g>
						<g>
							<path class="st1" d="M376.9,413.5c1.5-0.8,3.6-0.6,4.8,0.4c1.2,1,1,2.5-0.5,3.3s-3.6,0.6-4.8-0.4
								C375.3,415.8,375.5,414.4,376.9,413.5z"/>
						</g>
						<g>
							<path class="st1" d="M66.2,562.4c-1.7,0.9-1.9,2.5-0.6,3.5s3.7,1.2,5.3,0.3c1.6-0.9,1.9-2.5,0.6-3.5
								C70.1,561.6,67.7,561.5,66.2,562.4z"/>
						</g>
					</g>
					<g>
						<g>
							<polygon class="st1" points="235.7,587.7 94.7,667.4 29.1,664.7 -32.8,699.3 -34.1,698.3 28.4,663.4 94,666.1 233.8,587.1 
								237.4,562.8 429.2,455 430.4,456 239.3,563.4 							"/>
						</g>
						<g>
							<path class="st1" d="M427.5,453.8c1.5-0.8,3.6-0.7,4.8,0.3c1.2,1,1,2.5-0.5,3.3s-3.6,0.7-4.8-0.3
								C425.9,456.1,426,454.6,427.5,453.8z"/>
						</g>
						<g>
							<path class="st1" d="M-35.8,696.8c-1.7,0.9-1.9,2.6-0.6,3.6c1.3,1.1,3.8,1.2,5.5,0.2s1.9-2.6,0.6-3.6
								C-31.6,696-34,695.9-35.8,696.8z"/>
						</g>
					</g>
					<g>
						<g>
							<polygon class="st1" points="237.4,573.5 124.4,637.2 85.4,635.4 58.6,650.4 46,649.9 46.3,648.6 57.9,649 84.8,634.1 
								123.8,635.9 236.2,572.5 							"/>
						</g>
						<g>
							<path class="st1" d="M46.7,646.7c-2.1-0.1-4,0.9-4.2,2.3c-0.2,1.4,1.3,2.6,3.3,2.6c2.1,0.1,4-0.9,4.2-2.3
								C50.3,648,48.8,646.8,46.7,646.7z"/>
						</g>
					</g>
					<g>
						<g>
							<polygon class="st1" points="107,610.4 81.3,624.7 51.3,623.3 17.6,642 14.9,657.6 -12.4,672.7 -13.7,671.7 13.1,656.9 
								15.7,641.4 50.7,621.9 80.7,623.3 105,609.7 106.8,599.2 199.9,547.4 201.1,548.4 108.6,599.9 							"/>
						</g>
						<g>
							<path class="st1" d="M-15.2,670.3c-1.7,0.9-1.9,2.6-0.6,3.6c1.3,1.1,3.8,1.2,5.5,0.2s1.9-2.6,0.6-3.6
								C-11.2,669.4-13.6,669.3-15.2,670.3z"/>
						</g>
					</g>
					<g>
						<g>
							<polygon class="st1" points="154.4,603.6 131.7,616.3 130.4,615.4 152.6,603 154.2,592.2 372.3,470.4 373.5,471.3 
								156.1,592.8 							"/>
						</g>
						<g>
							<path class="st1" d="M370.5,469.1c1.5-0.9,3.7-0.7,4.9,0.3c1.2,1,1,2.5-0.5,3.3s-3.7,0.7-4.9-0.3
								C368.9,471.4,369.1,469.9,370.5,469.1z"/>
						</g>
						<g>
							<path class="st1" d="M128.8,613.9c-1.6,0.9-1.9,2.5-0.6,3.5c1.3,1,3.6,1.2,5.3,0.2c1.6-0.9,1.9-2.5,0.6-3.5
								C132.8,613.1,130.5,613,128.8,613.9z"/>
						</g>
					</g>
					<g>
						<g>
							<polygon class="st1" points="268.3,585.5 172.8,639.8 171.6,638.8 266.5,584.9 269,567.6 438.6,471.7 439.8,472.6 
								270.9,568.2 							"/>
						</g>
						<g>
							<path class="st1" d="M436.9,470.4c1.5-0.9,3.6-0.7,4.8,0.3c1.2,1,1,2.5-0.5,3.3c-1.5,0.9-3.6,0.7-4.8-0.3
								C435.3,472.7,435.5,471.2,436.9,470.4z"/>
						</g>
						<g>
							<path class="st1" d="M170.1,637.4c-1.6,0.9-1.9,2.5-0.6,3.5c1.3,1,3.6,1.2,5.2,0.2c1.6-0.9,1.9-2.5,0.6-3.5
								C173.9,636.6,171.6,636.5,170.1,637.4z"/>
						</g>
					</g>
					<g>
						<g>
							<polygon class="st1" points="312,596.4 279.3,594.7 124.9,682.8 77.4,680.9 1.1,724.1 -0.2,723.1 76.7,679.6 124.4,681.4 
								278.7,593.4 312.2,595.1 							"/>
						</g>
						<g>
							<path class="st1" d="M-1.7,721.5c-1.7,0.9-1.9,2.6-0.6,3.6s3.8,1.2,5.5,0.2c1.7-0.9,1.9-2.6,0.6-3.6
								C2.3,720.7-0.1,720.6-1.7,721.5z"/>
						</g>
					</g>
					<g>
						<g>
							<polygon class="st1" points="203.5,680.3 172.2,679.1 86.6,728.3 52.8,727.1 -3.8,759.5 -5.1,758.5 52.3,725.7 86.1,726.9 
								171.5,677.8 203.7,679 							"/>
						</g>
						<g>
							<path class="st1" d="M-6.7,756.9c-1.7,0.9-1.9,2.6-0.6,3.6s3.8,1.1,5.5,0.2s1.9-2.6,0.6-3.6C-2.6,756.1-5.1,756-6.7,756.9z"
								/>
						</g>
					</g>
					<g>
						<g>
							<polygon class="st1" points="151.2,717.7 100.4,747.2 69.8,746.2 28.2,770 26.9,769 69.1,744.8 99.7,745.8 150,716.7 							
								"/>
						</g>
						<g>
							<path class="st1" d="M25.4,767.6c-1.7,0.9-1.9,2.6-0.6,3.6s3.8,1.1,5.5,0.2c1.7-0.9,1.9-2.6,0.6-3.6
								C29.4,766.7,27,766.6,25.4,767.6z"/>
						</g>
					</g>
					<g>
						<g>
							<polygon class="st1" points="60.3,690.1 19.6,688.5 -13.4,707.1 -14.7,706.1 19,687.2 60.5,688.8 							"/>
						</g>
						<g>
							<path class="st1" d="M-16.4,704.7c-1.7,0.9-1.9,2.6-0.6,3.6c1.3,1.1,3.8,1.2,5.5,0.2s1.9-2.6,0.6-3.6
								C-12.2,703.8-14.7,703.7-16.4,704.7z"/>
						</g>
					</g>
					<g>
						<g>
							<polygon class="st1" points="349.8,445 239.8,505.8 213.1,504.1 133.1,548.1 131.8,547.1 212.4,502.8 239.2,504.5 
								348.6,444.1 							"/>
						</g>
						<g>
							<path class="st1" d="M346.9,442.8c1.5-0.9,3.7-0.7,4.9,0.3c1.2,1,1,2.5-0.5,3.3s-3.7,0.7-4.9-0.3
								C345.2,445.1,345.4,443.6,346.9,442.8z"/>
						</g>
						<g>
							<path class="st1" d="M130.2,545.7c-1.6,0.9-1.9,2.4-0.6,3.5c1.3,1,3.6,1.2,5.2,0.3c1.6-0.9,1.9-2.4,0.6-3.5
								C134.2,545,131.9,544.8,130.2,545.7z"/>
						</g>
					</g>
					<g>
						<g>
							<polygon class="st1" points="380,438.3 185.9,545.8 184.7,544.9 378.9,437.4 							"/>
						</g>
						<g>
							<path class="st1" d="M187.7,547.1c-1.6,0.9-3.9,0.8-5.2-0.3c-1.3-1-1-2.6,0.6-3.4c1.6-0.9,3.9-0.8,5.2,0.3
								C189.6,544.7,189.3,546.3,187.7,547.1z"/>
						</g>
					</g>
					<g>
						<g>
							<polygon class="st1" points="134.7,700.3 73.1,698 32.3,721.2 31,720.2 72.5,696.6 134.9,698.9 							"/>
						</g>
						<g>
							<path class="st1" d="M29.3,718.8c-1.7,0.9-1.9,2.6-0.6,3.6s3.7,1.2,5.4,0.2c1.7-0.9,1.9-2.6,0.6-3.6
								C33.4,717.8,31,717.7,29.3,718.8z"/>
						</g>
					</g>
				</g>
				<g>
					<g>
						<g>
							<polygon class="st1" points="531.3,310 654.4,242.8 655.5,243.7 533,310.7 529.9,335.4 402.8,405.4 401.6,404.4 528.3,334.7 
															"/>
						</g>
						<g>
							<path class="st1" d="M404.6,406.6c-1.5,0.8-3.6,0.6-4.8-0.4c-1.2-1-1-2.5,0.5-3.3s3.6-0.6,4.8,0.4
								C406.2,404.4,406.1,405.8,404.6,406.6z"/>
						</g>
						<g>
							<path class="st1" d="M656.9,245.1c1.3-0.7,1.5-2.1,0.4-3.1c-1.1-0.9-3.1-1.2-4.4-0.5c-1.3,0.7-1.5,2.1-0.4,3.1
								C653.5,245.6,655.6,245.8,656.9,245.1z"/>
						</g>
					</g>
					<g>
						<g>
							<polygon class="st1" points="698,183.7 762.9,148.8 763.9,149.7 699.7,184.4 697.8,201.4 577.3,266.9 574.8,287.5 
								573.1,287.3 575.6,266.2 696.2,200.8 							"/>
						</g>
						<g>
							<path class="st1" d="M765.3,151c1.3-0.7,1.4-2,0.3-2.9c-1.1-0.9-3.1-1.2-4.3-0.5c-1.3,0.7-1.4,2-0.3,2.9
								C762.1,151.5,764,151.7,765.3,151z"/>
						</g>
					</g>
					<g>
						<g>
							<polygon class="st1" points="736.4,141 807.2,103.1 808.3,104 738,141.7 735.6,164.8 733.9,164.7 							"/>
						</g>
						<g>
							<path class="st1" d="M809.6,105.3c1.3-0.7,1.4-2,0.3-2.9c-1.1-0.9-3-1.2-4.3-0.5s-1.4,2-0.3,2.9
								C806.5,105.8,808.3,106,809.6,105.3z"/>
						</g>
					</g>
					<g>
						<g>
							<polygon class="st1" points="498,466.8 616.8,399 648.4,401.5 772,330.6 773,331.5 648.9,402.8 617.5,400.3 499.1,467.8 
															"/>
						</g>
						<g>
							<path class="st1" d="M500.9,469.1c-1.4,0.8-3.5,0.7-4.7-0.3s-1-2.5,0.4-3.3s3.5-0.7,4.7,0.3
								C502.5,466.7,502.3,468.2,500.9,469.1z"/>
						</g>
						<g>
							<path class="st1" d="M774.4,332.8c1.3-0.8,1.4-2.1,0.3-3.1c-1.1-0.9-3.1-1.1-4.3-0.4c-1.3,0.8-1.4,2.1-0.3,3.1
								C771.1,333.4,773.1,333.6,774.4,332.8z"/>
						</g>
					</g>
					<g>
						<g>
							<polygon class="st1" points="628.7,305.3 746.1,240.2 799.4,245.4 846.1,219.2 847.3,220 800,246.6 746.7,241.4 630.4,306 
								627.8,328.1 449.3,427.9 448.1,426.9 626.2,327.5 							"/>
						</g>
						<g>
							<path class="st1" d="M450.9,429.2c-1.5,0.8-3.6,0.6-4.8-0.3c-1.2-1-1-2.5,0.5-3.3s3.6-0.6,4.8,0.3
								C452.6,426.9,452.4,428.3,450.9,429.2z"/>
						</g>
						<g>
							<path class="st1" d="M848.6,221.4c1.2-0.7,1.4-2,0.3-2.9c-1.1-0.9-3-1.2-4.3-0.5s-1.4,2-0.3,2.9
								C845.4,221.9,847.4,222.1,848.6,221.4z"/>
						</g>
					</g>
					<g>
						<g>
							<polygon class="st1" points="627.5,318.3 722.7,265.2 755.2,268.2 776.4,256.4 786.6,257.4 786.4,258.5 776.9,257.5 
								755.8,269.5 723.3,266.4 628.6,319.2 							"/>
						</g>
						<g>
							<path class="st1" d="M786.1,260c1.7,0.2,3.1-0.7,3.2-1.9c0.1-1.2-1.2-2.2-2.9-2.4s-3.1,0.7-3.2,1.9
								C783.1,258.8,784.4,259.9,786.1,260z"/>
						</g>
					</g>
					<g>
						<g>
							<polygon class="st1" points="738.5,289.4 759,277.7 783.5,280.1 809.7,265.3 811,252.1 831.7,240.4 832.8,241.3 812.6,252.7 
								811.3,265.9 784.1,281.2 759.6,279 740,290 739.1,299.1 661.4,343 660.3,342.1 737.4,298.5 							"/>
						</g>
						<g>
							<path class="st1" d="M834.1,242.7c1.3-0.7,1.4-2,0.3-3c-1.1-0.9-3.1-1.2-4.3-0.4c-1.3,0.7-1.4,2-0.3,3
								C831,243.2,832.9,243.4,834.1,242.7z"/>
						</g>
					</g>
					<g>
						<g>
							<polygon class="st1" points="698.8,293.8 717.6,283.2 718.6,284.2 700.3,294.4 699.3,303.9 504.9,413.1 503.7,412.2 
								697.8,303.2 							"/>
						</g>
						<g>
							<path class="st1" d="M506.5,414.4c-1.4,0.8-3.5,0.6-4.7-0.4s-1-2.4,0.4-3.3c1.4-0.8,3.5-0.6,4.7,0.4S507.9,413.6,506.5,414.4
								z"/>
						</g>
						<g>
							<path class="st1" d="M720,285.5c1.3-0.7,1.5-2.1,0.3-3c-1.1-0.9-3.1-1.2-4.4-0.4c-1.3,0.7-1.5,2.1-0.4,3
								C716.7,286,718.7,286.3,720,285.5z"/>
						</g>
					</g>
					<g>
						<g>
							<polygon class="st1" points="599.6,306.2 681.7,260.9 682.8,261.9 601.3,306.9 599.4,322.8 439.8,411.3 438.7,410.4 
								597.7,322.2 							"/>
						</g>
						<g>
							<path class="st1" d="M441.6,412.6c-1.5,0.8-3.6,0.6-4.8-0.4c-1.2-1-1-2.5,0.5-3.3s3.6-0.6,4.8,0.4
								C443.3,410.3,443.1,411.8,441.6,412.6z"/>
						</g>
						<g>
							<path class="st1" d="M684.2,263.2c1.3-0.7,1.5-2.1,0.4-3s-3.1-1.2-4.4-0.4c-1.3,0.7-1.5,2.1-0.4,3.1
								C680.8,263.7,682.9,263.9,684.2,263.2z"/>
						</g>
					</g>
					<g>
						<g>
							<polygon class="st1" points="559.6,294.9 589.5,297.5 720.5,225.5 759.6,229.4 818.4,196.9 819.5,197.7 760.2,230.6 
								721.1,226.7 590.1,298.7 559.5,296 							"/>
						</g>
						<g>
							<path class="st1" d="M820.8,199.1c1.3-0.7,1.4-2,0.3-2.9s-3.1-1.2-4.3-0.5c-1.3,0.7-1.4,2-0.3,2.9
								C817.7,199.6,819.6,199.7,820.8,199.1z"/>
						</g>
					</g>
					<g>
						<g>
							<polygon class="st1" points="654,223.8 680.9,226.4 750,188.7 777.3,191.5 820.4,167.8 821.4,168.8 777.9,192.7 750.6,189.8 
								681.5,227.6 653.9,224.9 							"/>
						</g>
						<g>
							<path class="st1" d="M822.8,170.1c1.3-0.7,1.4-2,0.3-2.9c-1.1-0.9-3-1.2-4.3-0.5s-1.4,2-0.3,2.9
								C819.7,170.5,821.5,170.8,822.8,170.1z"/>
						</g>
					</g>
					<g>
						<g>
							<polygon class="st1" points="697.2,194 738.1,171.9 762.9,174.6 794.8,157.2 795.8,158.1 763.4,175.7 738.6,173.1 
								698.3,194.9 							"/>
						</g>
						<g>
							<path class="st1" d="M797.2,159.4c1.3-0.7,1.4-2,0.3-2.9c-1.1-0.9-3.1-1.2-4.3-0.5c-1.3,0.7-1.4,2-0.3,2.9
								C794.1,159.9,795.9,160.1,797.2,159.4z"/>
						</g>
					</g>
					<g>
						<g>
							<polygon class="st1" points="773.1,222.4 805.7,225.6 830.7,211.7 831.7,212.6 806.3,226.9 773,223.5 							"/>
						</g>
						<g>
							<path class="st1" d="M833.1,213.9c1.3-0.7,1.4-2,0.3-2.9c-1.1-0.9-3-1.2-4.3-0.5s-1.4,2-0.3,2.9
								C830,214.5,831.8,214.6,833.1,213.9z"/>
						</g>
					</g>
					<g>
						<g>
							<polygon class="st1" points="526.7,437.9 627.4,380.8 651.2,382.7 719.1,343.9 720.2,344.8 651.9,383.9 627.9,382 
								527.8,438.8 							"/>
						</g>
						<g>
							<path class="st1" d="M529.5,440.1c-1.4,0.8-3.5,0.6-4.7-0.3c-1.2-1-1-2.4,0.4-3.3c1.4-0.8,3.5-0.6,4.7,0.3
								C531,437.8,530.9,439.3,529.5,440.1z"/>
						</g>
						<g>
							<path class="st1" d="M721.6,346.2c1.3-0.8,1.5-2.2,0.4-3.1s-3.1-1.2-4.4-0.4c-1.3,0.8-1.5,2.2-0.4,3.1
								C718.3,346.8,720.3,346.9,721.6,346.2z"/>
						</g>
					</g>
					<g>
						<g>
							<polygon class="st1" points="497.6,444.6 673.7,344.8 674.8,345.7 498.8,445.5 							"/>
						</g>
						<g>
							<path class="st1" d="M672,343.7c1.3-0.8,3.3-0.6,4.4,0.4c1.1,0.9,1,2.3-0.4,3.1c-1.3,0.8-3.3,0.6-4.4-0.4
								C670.6,345.7,670.7,344.4,672,343.7z"/>
						</g>
					</g>
					<g>
						<g>
							<polygon class="st1" points="711.6,209.9 762.3,215.1 794.1,197.6 795.1,198.5 762.9,216.2 711.5,211.1 							"/>
						</g>
						<g>
							<path class="st1" d="M796.5,199.8c1.3-0.7,1.4-2,0.3-2.9c-1.1-0.9-3.1-1.2-4.3-0.5c-1.3,0.7-1.4,2-0.3,2.9
								C793.2,200.3,795.2,200.5,796.5,199.8z"/>
						</g>
					</g>
				</g>
			</g>
		</g>
	</g>
</g>
<path class="st2" d="M413.2,118.4c-0.2,0.1-0.5,0.2-0.7,0.3c-0.2,0.1-0.4,0.2-0.5,0.4l-22.7-13.4c-0.1-0.1-0.2-0.2-0.2-0.3L384,91.6
	c0-0.1-0.1-0.2-0.2-0.3l-0.2-0.2l1.1-0.7h0.1c0.1,0.1,0.2,0.2,0.2,0.3l5,13.8c0,0.1,0.1,0.2,0.2,0.3L413.2,118.4z"/>
<path class="st2" d="M412.6,113.8c-0.1,0-0.2,0.1-0.4,0.2c-0.3,0.2-0.5,0.4-0.7,0.6l-18.4-10.7c-0.1-0.1-0.2-0.2-0.3-0.3l-5.1-13.8
	c0-0.1-0.1-0.2-0.2-0.3l-0.6-0.3l1.1-0.7l0.4,0.2c0.1,0.1,0.2,0.2,0.2,0.3l5,13.8c0,0.1,0.1,0.2,0.2,0.3L412.6,113.8z"/>
<g>
	<g class="st3">
		<g>
			<path class="st4" d="M390.6,87l-2.4,1.4l-1.1,0.7l-2.4,1.4l-1.1,0.7L197.4,201.1c-6.1,3.6-16,3.7-22.1,0.3l-23.2-13.3l-3-1.7
				l-5.8-3.3l0,0l-2.4-1.4l-75-42.9c-6.1-3.5-6-9.2,0.1-12.8L259.2,11.9c6.1-3.6,16.4-6.7,22.5-3.2l109,62.5
				C396.8,74.6,396.7,83.4,390.6,87z"/>
		</g>
	</g>
	<g>
		<g>
			<g>
				<g>
					<path class="st5" d="M368.5,91.6c1.7,1,4.6,1,6.3-0.1l3.4-2l-3.5-2l-6.5,3.9L368.5,91.6z"/>
				</g>
			</g>
			<g>
				<g>
					<polygon class="st5" points="367.1,90.8 373.6,86.9 370,84.9 363.5,88.7 					"/>
				</g>
			</g>
			<g>
				<g>
					<path class="st5" d="M357.3,85.2l0.4,0.2l6.5-3.9l-3.5-2l-3.4,2C355.6,82.6,355.6,84.2,357.3,85.2z"/>
				</g>
			</g>
			<g>
				<g>
					<path class="st5" d="M370.7,73.6l-3.2,1.9l-1.1,0.7l-4.5,2.7l3.5,2l1.1,0.6l3.6,2l1.1,0.6l3.6,2l1.1,0.6l3.5,2l4.5-2.7l-3.5-2
						l-1.1-0.6l-3.6-2l-1.1-0.6l-3.6-2l-1.1-0.6l1.1-0.7l6.4-3.8l-0.4-0.2C375.3,72.6,372.5,72.6,370.7,73.6z"/>
				</g>
			</g>
			<g>
				<g>
					<polygon class="st5" points="362.4,88.1 368.9,84.2 365.4,82.2 358.8,86.1 					"/>
				</g>
			</g>
			<g>
				<g>
					<polygon class="st5" points="375.7,80.2 382.1,76.5 378.5,74.4 372.1,78.2 					"/>
				</g>
			</g>
			<g>
				<g>
					<polygon class="st5" points="380.4,82.9 386.8,79.1 383.2,77.1 376.8,80.9 					"/>
				</g>
			</g>
			<g>
				<g>
					<path class="st5" d="M385,85.6l3.2-1.9c1.8-1,1.8-2.7,0.1-3.7l-0.4-0.2l-6.4,3.8L385,85.6z"/>
				</g>
			</g>
		</g>
		<g>
			<g>
				<polygon class="st5" points="242.5,51 286.2,25.3 340.1,56.1 296.5,81.9 				"/>
			</g>
		</g>
		<g>
			<g>
				<polygon class="st5" points="305.2,79.4 335.9,61.2 339.1,63.1 308.4,81.2 				"/>
			</g>
		</g>
		<g>
			<g>
				<polygon class="st5" points="311.8,80.7 338.3,65 341.5,66.9 315,82.6 				"/>
			</g>
		</g>
		<g>
			<path class="st5" d="M343.3,73.3c-1.9,0.8-2.6,2.2-3.4,3.4c-2.2,3.2-4,6.5-5.5,9.8c-0.8,1.8-1.5,3.7-2,5.6
				c-0.3,0.9-0.6,1.8-0.7,2.7c0,0.8,0.3,1.5,1.5,1.9c0.3,0.1,0.7,0,0.9-0.2c4.2-3.2,8.1-6.6,11.6-10.1c-0.5,3-1,6.1-1.7,9.1
				c-0.1,0.5,1.2,0.5,1.3,0c0.8-3.6,1.5-7.1,2-10.7l0.1-0.1c0.6-0.2,1.1-0.3,1.7-0.5c0.8-0.2,0.1-0.8-0.6-0.7c1.4-1.5,2.8-3,4-4.5
				c0.3-0.3-0.3-0.7-0.9-0.5c-1.3,0.4-2.5,0.9-3.7,1.4c0-0.2,0.1-0.4,0.1-0.6c0.1-0.9,0.2-1.8,0.3-2.7c0.1-0.8,0.2-1.6-0.2-2.4
				C347.4,73.1,345.2,72.5,343.3,73.3z M350.3,79.9c-0.9,1.1-1.9,2.1-2.8,3.1c0.1-0.7,0.2-1.4,0.3-2
				C348.6,80.6,349.4,80.2,350.3,79.9z M346,84.2c-2.1,0.6-4.2,1.3-6.1,2c1.8-1.7,3.9-3.2,6.5-4.6C346.3,82.5,346.2,83.4,346,84.2z
				 M346.9,75.1c0.1,0.8,0,1.6-0.1,2.3c-0.1,0.8-0.2,1.6-0.2,2.4c0,0.3-0.1,0.5-0.1,0.8c-3.7,1.8-6.8,4.1-9,6.6
				c-0.3,0.3,0.3,0.7,0.9,0.5c2.2-0.9,4.5-1.7,6.9-2.4c-3.6,3.6-7.6,7.1-11.9,10.5c-0.6-0.5-0.4-1.2-0.3-1.8
				c0.2-0.7,0.4-1.5,0.6-2.2c0.5-1.5,1-3,1.6-4.5c1.3-3,2.8-5.9,4.7-8.8c0.5-0.8,1-1.5,1.5-2.2c0.4-0.6,0.8-1.1,1.4-1.6
				c0.5-0.4,1.2-0.9,2.1-0.9C346.3,73.6,346.8,74.5,346.9,75.1z"/>
		</g>
		<g>
			<g>
				<polygon class="st5" points="249.5,34.5 109.2,117.4 102.6,113.6 243,30.8 				"/>
			</g>
		</g>
		<g>
			<g>
				<polygon class="st5" points="233.5,51.1 136.6,108.3 132.9,106.2 229.8,48.9 				"/>
			</g>
		</g>
		<g>
			<g>
				<polygon class="st5" points="234.6,76.1 158.7,120.9 155,118.8 230.9,74 				"/>
			</g>
		</g>
		<g>
			<g>
				<polygon class="st5" points="241.1,79.8 165.2,124.6 161.4,122.5 237.3,77.7 				"/>
			</g>
		</g>
		<g>
			<g>
				<polygon class="st5" points="195.5,114.3 171.7,128.3 167.9,126.2 191.8,112.1 				"/>
			</g>
		</g>
		<g>
			<g>
				<polygon class="st5" points="131.5,137 114.3,147.2 110.6,145 127.8,134.9 				"/>
			</g>
		</g>
		<g>
			<g>
				<polygon class="st5" points="149.1,141.7 127.3,154.6 123.5,152.4 145.3,139.5 				"/>
			</g>
		</g>
		<g>
			<g>
				<polygon class="st5" points="155.6,145.4 133.7,158.3 130,156.1 151.8,143.2 				"/>
			</g>
		</g>
		<g>
			<g>
				<polygon class="st5" points="168.5,152.8 156.3,160 152.6,157.8 164.8,150.6 				"/>
			</g>
		</g>
		<g>
			<g>
				<polygon class="st5" points="180.5,153.2 162.8,163.7 159.1,161.5 176.7,151.1 				"/>
			</g>
		</g>
		<g>
			<g>
				<polygon class="st5" points="148.1,134.7 120.8,150.9 117,148.7 144.4,132.6 				"/>
			</g>
		</g>
		<g>
			<g>
				<polygon class="st5" points="231.8,115.4 191.1,139.5 187.3,137.3 228,113.3 				"/>
			</g>
		</g>
		<g>
			<g>
				<polygon class="st5" points="199.3,119.6 178.1,132.1 174.4,129.9 195.5,117.4 				"/>
			</g>
		</g>
		<g>
			<g>
				<polygon class="st5" points="203.4,124.7 184.6,135.8 180.8,133.6 199.6,122.5 				"/>
			</g>
		</g>
		<g>
			<g>
				<polygon class="st5" points="162,149.1 149.9,156.3 146.1,154.1 158.3,146.9 				"/>
			</g>
		</g>
		<g>
			<g>
				<polygon class="st5" points="226.1,141.4 210.5,150.6 206.7,148.4 222.3,139.2 				"/>
			</g>
		</g>
		<g>
			<g>
				<polygon class="st5" points="200.1,156.7 166.4,176.6 162.6,174.5 196.3,154.5 				"/>
			</g>
		</g>
		<g>
			<g>
				<polygon class="st5" points="213,164.1 179.3,184 175.6,181.9 209.3,162 				"/>
			</g>
		</g>
		<g>
			<g>
				<polygon class="st5" points="220,129.9 197.5,143.2 193.8,141 216.2,127.8 				"/>
			</g>
		</g>
		<g>
			<g>
				<polygon class="st5" points="222.8,135.8 204,146.9 200.3,144.7 219,133.6 				"/>
			</g>
		</g>
		<g>
			<g>
				<polygon class="st5" points="178.7,161.8 159.9,172.9 156.1,170.8 174.9,159.7 				"/>
			</g>
		</g>
		<g>
			<g>
				<polygon class="st5" points="195.5,167.4 173.2,180.5 169.4,178.4 191.7,165.2 				"/>
			</g>
		</g>
		<g>
			<g>
				<polygon class="st5" points="213.8,171.2 185.8,187.7 182,185.6 210,169 				"/>
			</g>
		</g>
		<g>
			<g>
				<polygon class="st5" points="248.7,150.6 229.9,161.7 226.1,159.5 244.9,148.4 				"/>
			</g>
		</g>
		<g>
			<g>
				<polygon class="st5" points="237.6,149.6 223.4,158 219.7,155.8 233.8,147.5 				"/>
			</g>
		</g>
		<g>
			<g>
				<polygon class="st5" points="251.2,134.1 217,154.3 213.2,152.1 247.4,131.9 				"/>
			</g>
		</g>
		<g>
			<g>
				<polygon class="st5" points="113.6,133.4 102.1,140.2 96.8,137.1 108.2,130.3 				"/>
			</g>
		</g>
		<g>
			<g>
				<path class="st5" d="M146.4,114.1l1.2-0.7l-4.7-2.7l-1.2,0.7c-0.1,0.1-0.2,0.1-0.4,0.1s-0.3,0-0.4-0.1c-0.1-0.1-0.2-0.1-0.2-0.2
					s0.1-0.2,0.2-0.2l2-1.2l5.4,3.1l0.8-0.5l-1.6-0.9c-0.1-0.1-0.2-0.1-0.2-0.2s0.1-0.2,0.2-0.2s0.2-0.1,0.4-0.1s0.3,0,0.4,0.1
					l2,1.2c0.1,0.1,0.2,0.1,0.2,0.2s-0.1,0.2-0.2,0.2l-3.2,1.9c-0.1,0.1-0.2,0.1-0.4,0.1s-0.3,0-0.4-0.1c-0.1-0.1-0.2-0.1-0.2-0.2
					C146.2,114.3,146.3,114.2,146.4,114.1z"/>
				<path class="st5" d="M156.3,109.2l-3.6,2.2l-2.7-1.6c-0.2-0.1-0.3-0.3-0.3-0.5s0.1-0.3,0.3-0.5l2.4-1.4l-1.9-1.1l-2.9,1.7
					c-0.1,0.1-0.2,0.1-0.4,0.1s-0.3,0-0.4-0.1c-0.1-0.1-0.2-0.1-0.2-0.2s0.1-0.2,0.2-0.2l2.9-1.7c0.2-0.1,0.5-0.2,0.8-0.2
					s0.6,0.1,0.8,0.2l1.9,1.1c0.2,0.1,0.3,0.3,0.3,0.5s-0.1,0.3-0.3,0.5l-2.4,1.4l1.9,1.1l2.8-1.7c0.1-0.1,0.2-0.1,0.4-0.1
					s0.3,0,0.4,0.1s0.2,0.1,0.2,0.2C156.5,109,156.4,109.1,156.3,109.2z"/>
				<path class="st5" d="M157.2,102.3l1.5,0.8c0.3,0.2,0.5,0.4,0.5,0.7c0.5,0,0.8,0.1,1.1,0.3l1.5,0.9c0.2,0.1,0.3,0.3,0.3,0.5
					s-0.1,0.3-0.3,0.5l-2.8,1.7c-0.1,0.1-0.2,0.1-0.4,0.1s-0.3,0-0.4-0.1c-0.1-0.1-0.2-0.1-0.2-0.2s0.1-0.2,0.2-0.2l2.8-1.7
					l-1.5-0.9c-0.1-0.1-0.2-0.1-0.4-0.1s-0.3,0-0.4,0.1l-1.6,1c-0.1,0.1-0.2,0.1-0.4,0.1s-0.3,0-0.4-0.1c-0.1-0.1-0.2-0.1-0.2-0.2
					s0.1-0.2,0.2-0.2l1.6-1c0.1-0.1,0.2-0.1,0.2-0.2s-0.1-0.2-0.2-0.2l-1.5-0.9l-2.9,1.7c-0.1,0.1-0.2,0.1-0.4,0.1s-0.3,0-0.4-0.1
					c-0.1-0.1-0.2-0.1-0.2-0.2s0.1-0.2,0.2-0.2l2.9-1.7c0.2-0.1,0.5-0.2,0.8-0.2C156.7,102.2,157,102.2,157.2,102.3z"/>
				<path class="st5" d="M166.7,102.6l-1.6-0.9l-2.4,1.4l-3.8-2.2c-0.1-0.1-0.2-0.1-0.2-0.2s0.1-0.2,0.2-0.2
					c0.1-0.1,0.2-0.1,0.4-0.1s0.3,0,0.4,0.1l3,1.7l1.6-0.9L162,100c-0.1-0.1-0.2-0.1-0.2-0.2s0.1-0.2,0.2-0.2
					c0.1-0.1,0.2-0.1,0.4-0.1s0.3,0,0.4,0.1l2.3,1.3c0.1-0.1,0.2-0.1,0.4-0.1s0.3,0,0.4,0.1s0.2,0.1,0.2,0.2s-0.1,0.2-0.2,0.2
					l1.7,0.9c0.1,0.1,0.2,0.1,0.2,0.2s-0.1,0.2-0.2,0.2c-0.1,0.1-0.2,0.1-0.4,0.1C166.9,102.7,166.8,102.6,166.7,102.6z"/>
				<path class="st5" d="M171.1,99.6l1.9-1.1l-1.9-1.1l-2.4,1.4l-3.5-2l2.8-1.7c0.1-0.1,0.2-0.1,0.4-0.1s0.3,0,0.4,0.1
					c0.1,0.1,0.2,0.1,0.2,0.2s-0.1,0.2-0.2,0.2l-2,1.2l1.9,1.1l1.6-1c0.2-0.1,0.5-0.2,0.8-0.2s0.6,0.1,0.8,0.2l1.9,1.1
					c0.2,0.1,0.3,0.3,0.3,0.5s-0.1,0.3-0.3,0.5l-1.9,1.1c-0.2,0.1-0.4,0.2-0.6,0.2l-0.9,0.2c-0.2,0.1-0.4,0-0.6-0.1
					c-0.1-0.1-0.2-0.1-0.2-0.2s0-0.2,0.2-0.2c0.1,0,0.2-0.1,0.3-0.1l0.8-0.2C170.9,99.6,171,99.6,171.1,99.6z"/>
				<path class="st5" d="M170.5,93.6l0.4-0.2c0.1-0.1,0.2-0.1,0.4-0.1s0.3,0,0.4,0.1c0.1,0.1,0.2,0.1,0.2,0.2s-0.1,0.2-0.2,0.2
					l2.6,1.5l2.8-1.7c0.1-0.1,0.2-0.1,0.4-0.1s0.3,0,0.4,0.1l2,1.2c0.1,0.1,0.2,0.1,0.2,0.2s-0.1,0.2-0.2,0.2l-3.2,1.9
					c-0.1,0.1-0.2,0.1-0.4,0.1s-0.3,0-0.4-0.1l-5.4-3.1c-0.1-0.1-0.2-0.1-0.2-0.2S170.3,93.6,170.5,93.6z M175,95.7l1.2,0.7l2.4-1.4
					l-1.2-0.7L175,95.7z"/>
				<path class="st5" d="M176.7,90.8l-0.3-0.2c-0.1-0.1-0.2-0.1-0.2-0.2s0.1-0.2,0.2-0.2l3.6-2.1l2.4,1.4c0.1,0.1,0.2,0.2,0.2,0.3
					l-0.2,1.6l1.8,1.1c0.1,0.1,0.2,0.1,0.2,0.2s-0.1,0.2-0.2,0.2S184,93,183.8,93s-0.3,0-0.4-0.1l-2-1.1c-0.2-0.1-0.2-0.2-0.2-0.3
					l0.2-1.6l-1.5-0.8l-2.4,1.4c0.2,0.2,0.1,0.3-0.1,0.4c-0.1,0.1-0.2,0.1-0.4,0.1C176.9,90.9,176.8,90.8,176.7,90.8z"/>
				<path class="st5" d="M187.2,90l-1.9-1.1c-0.2-0.1-0.3-0.3-0.3-0.5s0.1-0.3,0.3-0.5l-2.3-1.3c-0.1-0.1-0.2-0.1-0.2-0.2
					s0.1-0.2,0.2-0.2l1.6-1c0.1-0.1,0.2-0.1,0.4-0.1s0.3,0,0.4,0.1l2.3,1.3c0.2-0.1,0.5-0.2,0.8-0.2s0.6,0.1,0.8,0.2l1.9,1.1
					c0.2,0.1,0.3,0.3,0.3,0.5s-0.1,0.3-0.3,0.5l-2.4,1.4c-0.2,0.1-0.5,0.2-0.8,0.2C187.7,90.2,187.5,90.1,187.2,90z M186.1,88.4
					l1.9,1.1l2.4-1.4l-1.9-1.1L186.1,88.4z M184.2,86.4l1.9,1.1l0.8-0.5l-1.9-1.1L184.2,86.4z"/>
				<path class="st5" d="M197.6,84.8l-0.4,0.2c-0.1,0.1-0.2,0.1-0.4,0.1s-0.3,0-0.4-0.1s-0.2-0.1-0.2-0.2s0.1-0.2,0.2-0.2l-2.6-1.5
					l-2.8,1.7c-0.1,0.1-0.2,0.1-0.4,0.1s-0.3,0-0.4-0.1l-2-1.2c-0.1-0.1-0.2-0.1-0.2-0.2s0.1-0.2,0.2-0.2l3.2-1.9
					c0.1-0.1,0.2-0.1,0.4-0.1s0.3,0,0.4,0.1l5.4,3.1c0.1,0.1,0.2,0.1,0.2,0.2C197.8,84.6,197.7,84.7,197.6,84.8z M193,82.6l-1.2-0.7
					l-2.4,1.4l1.2,0.7L193,82.6z"/>
				<path class="st5" d="M199.1,83l-4.7-2.7c-0.2-0.1-0.3-0.3-0.3-0.4c0-0.2,0.1-0.3,0.3-0.5l2.5-1.5c0.2-0.1,0.5-0.2,0.8-0.2
					s0.6,0.1,0.8,0.2l4.7,2.7c0.2,0.1,0.3,0.3,0.3,0.4c0,0.2-0.1,0.3-0.3,0.4l-2.5,1.5c-0.2,0.1-0.5,0.2-0.8,0.2
					C199.6,83.2,199.3,83.2,199.1,83z M202.3,81.1l-4.7-2.7l-2.4,1.4l4.7,2.7L202.3,81.1z"/>
				<path class="st5" d="M205,79.5l-4.7-2.7c-0.2-0.1-0.3-0.3-0.3-0.4c0-0.2,0.1-0.3,0.3-0.5l2.5-1.5c0.2-0.1,0.5-0.2,0.8-0.2
					s0.6,0.1,0.8,0.2l4.7,2.7c0.2,0.1,0.3,0.3,0.3,0.4c0,0.2-0.1,0.3-0.3,0.4l-2.5,1.5c-0.2,0.1-0.5,0.2-0.8,0.2
					C205.5,79.7,205.2,79.7,205,79.5z M208.2,77.6l-4.7-2.7l-2.4,1.4l4.7,2.7L208.2,77.6z"/>
				<path class="st5" d="M210.9,76.1l-4.7-2.7c-0.2-0.1-0.3-0.3-0.3-0.4c0-0.2,0.1-0.3,0.3-0.5l2.5-1.5c0.2-0.1,0.5-0.2,0.8-0.2
					s0.6,0.1,0.8,0.2l4.7,2.7c0.2,0.1,0.3,0.3,0.3,0.4c0,0.2-0.1,0.3-0.3,0.4l-2.5,1.5c-0.2,0.1-0.5,0.2-0.8,0.2
					S211.1,76.2,210.9,76.1z M214.1,74.1l-4.7-2.7l-2.4,1.4l4.7,2.7L214.1,74.1z"/>
				<path class="st5" d="M216.8,72.6l-4.7-2.7c-0.2-0.1-0.3-0.3-0.3-0.4c0-0.2,0.1-0.3,0.3-0.5l2.5-1.5c0.2-0.1,0.5-0.2,0.8-0.2
					s0.6,0.1,0.8,0.2l4.7,2.7c0.2,0.1,0.3,0.3,0.3,0.4c0,0.2-0.1,0.3-0.3,0.4l-2.5,1.5c-0.2,0.1-0.5,0.2-0.8,0.2
					C217.3,72.8,217,72.7,216.8,72.6z M220,70.7l-4.7-2.7l-2.4,1.4l4.7,2.7L220,70.7z"/>
				<path class="st5" d="M227.1,67.4l-3.6,2.2l-2.7-1.6c-0.2-0.1-0.3-0.3-0.3-0.5s0.1-0.3,0.3-0.5l2.4-1.4l-1.9-1.1l-2.9,1.7
					c-0.1,0.1-0.2,0.1-0.4,0.1s-0.3,0-0.4-0.1s-0.2-0.1-0.2-0.2s0.1-0.2,0.2-0.2l2.9-1.7c0.2-0.1,0.5-0.2,0.8-0.2s0.6,0.1,0.8,0.2
					l1.9,1.1c0.2,0.1,0.3,0.3,0.3,0.5s-0.1,0.3-0.3,0.5l-2.4,1.4l1.9,1.1l2.8-1.7c0.1-0.1,0.2-0.1,0.4-0.1s0.3,0,0.4,0.1
					s0.2,0.1,0.2,0.2C227.3,67.2,227.2,67.3,227.1,67.4z"/>
			</g>
		</g>
	</g>
</g>
<g id="XMLID_280_">
	<g id="XMLID_174_">
		<path id="XMLID_176_" class="st1" d="M414.3,114.8L394,102.9c-0.1-0.1-0.2-0.2-0.3-0.3l-5.1-13.8c0-0.1-0.1-0.2-0.2-0.3
			l-17.7-10.6c-0.3-0.2-0.4-0.5-0.2-0.8l0,0c0.2-0.3,0.5-0.4,0.8-0.2l18,10.8c0.1,0.1,0.2,0.2,0.2,0.3l5.1,13.7
			c0,0.1,0.1,0.2,0.3,0.3l20,11.6c0.3,0.2,0.4,0.5,0.2,0.8l0,0C415,114.9,414.6,115,414.3,114.8z"/>
	</g>
	<path id="XMLID_286_" class="st1" d="M417.2,115.5c-1.1,0.7-3,0.7-4.1,0s-1.1-1.7,0-2.4c1.1-0.7,3-0.7,4.1,0
		S418.3,114.9,417.2,115.5z"/>
</g>
<g id="XMLID_271_">
	<g id="XMLID_278_">
		<path id="XMLID_279_" class="st1" d="M414.3,119l-24.2-14.2c-0.1-0.1-0.2-0.2-0.3-0.3l-5.1-13.8c0-0.1-0.1-0.2-0.2-0.3l-17.7-10.6
			c-0.3-0.2-0.4-0.5-0.2-0.8l0,0c0.2-0.3,0.5-0.4,0.8-0.2l18,10.8c0.1,0.1,0.2,0.2,0.2,0.3l5.1,13.7c0,0.1,0.1,0.2,0.3,0.3
			l23.8,13.9c0.3,0.2,0.4,0.5,0.2,0.8l0,0C415,119.1,414.6,119.2,414.3,119z"/>
	</g>
	<path id="XMLID_277_" class="st1" d="M417.5,120.2c-1.1,0.7-3,0.7-4.1,0s-1.1-1.7,0-2.4c1.1-0.7,3-0.7,4.1,0
		C418.6,118.5,418.6,119.6,417.5,120.2z"/>
</g>
<path class="st2" d="M145.5,188.4L26.2,256.9c0.5,1.2,0.3,1.1-0.8,2.2l81.4,47.4l10.4-5.9c0.8-0.5,1.9-0.2,2.4,0.5
	c0.5,0.8,0.2,1.8-0.6,2.2l-9,5.1l9.4,5.5l-2.2,3.8l-11.6-6.8l-3.3-1.9l-81.9-47.7c-2.7,0.4-5.7,0-7.8-1.2c-3.2-1.8-3.2-4.8,0-6.6
	c2.7-1.5,6.7-1.8,9.8-0.7l117.5-67.7l3.4-1.9l0,0l5.8,3.3L145.5,188.4z"/>
<path id="XMLID_180_" class="st2" d="M356.9,340.1l-125.6-73.7c-0.1-1.2-0.8-2.3-2.4-3.2c-1.5-0.9-3.4-1.3-5.4-1.4l-0.4-0.2
	l-0.4,0.2c-1.9,0.1-3.9,0.5-5.4,1.4s-2.3,2-2.4,3.2L142.2,309l2.6,4l73.1-42.8c3.1,1.7,7.5,1.5,10.7-0.2l126,73.9L356.9,340.1z"/>
<g id="XMLID_18_">
	<path id="XMLID_5_" class="st1" d="M107,307.9l11.6,6.8l2.2-3.8l-9.4-5.5l8.9-5.1c0.8-0.5,1.1-1.5,0.6-2.3s-1.6-1-2.4-0.5
		l-10.4,5.9L26.7,256c1.1-1.1,1.4-2.4,0.8-3.5l218-125.3l-4.6-2.6L23.7,249.7c-3.1-1-7.1-0.8-9.8,0.7c-3.2,1.8-3.2,4.8,0,6.6
		c2.1,1.2,5.1,1.6,7.8,1.2l81.9,47.7"/>
	<path id="XMLID_222_" class="st1" d="M358.1,337.1l-125.6-73.7c-0.1-1.2-0.8-2.3-2.4-3.2c-1.5-0.9-3.4-1.3-5.4-1.4l-0.4-0.2
		l-0.4,0.2c-1.9,0.1-3.9,0.5-5.4,1.4s-2.3,2-2.4,3.2L143.4,306l2.2,3.8l73.1-42.8c3.1,1.7,8,1.7,11.1,0l126,73.9L358.1,337.1z"/>
	<polyline id="XMLID_1_" class="st6" points="129,314 129,314.7 134.2,317.8 	"/>
</g>
<g id="XMLID_310_">
	<g id="XMLID_238_" class="st7">
		<g id="XMLID_240_">
			<path id="XMLID_241_" class="st4" d="M670.7,541.9l-57-33.2c-0.3-0.2-0.6-0.5-0.7-0.9l-14.2-38.6c-0.1-0.4-0.4-0.6-0.7-0.8
				l-49.6-29.8c-0.8-0.5-1-1.5-0.6-2.2l0,0c0.5-0.8,1.5-1,2.2-0.6l50.6,30.4c0.3,0.2,0.6,0.5,0.7,0.8l14.2,38.5
				c0.1,0.4,0.4,0.7,0.7,0.9l55.9,32.7c0.8,0.5,1,1.5,0.6,2.2l0,0C672.4,542.1,671.4,542.3,670.7,541.9z"/>
		</g>
		<path id="XMLID_239_" class="st4" d="M678.7,543.7c-3.2,1.8-8.3,1.8-11.5,0s-3.2-4.8,0-6.6s8.3-1.8,11.5,0
			C681.8,538.9,681.8,541.9,678.7,543.7z"/>
	</g>
	<g id="XMLID_234_" class="st7">
		<g id="XMLID_236_">
			<path id="XMLID_237_" class="st4" d="M670.7,553.7L602.9,514c-0.3-0.2-0.6-0.5-0.7-0.8L588,474.6c-0.1-0.4-0.4-0.6-0.7-0.8
				l-49.6-29.9c-0.8-0.5-1-1.5-0.6-2.2l0,0c0.5-0.8,1.5-1,2.2-0.6l50.6,30.4c0.3,0.2,0.6,0.5,0.7,0.8l14.2,38.5
				c0.1,0.4,0.4,0.7,0.7,0.8l66.8,39.1c0.8,0.5,1,1.5,0.6,2.2l0,0C672.4,553.9,671.4,554.1,670.7,553.7z"/>
		</g>
		<path id="XMLID_235_" class="st4" d="M679.5,556.9c-3.2,1.8-8.3,1.8-11.5,0s-3.2-4.8,0-6.6s8.3-1.8,11.5,0
			S682.7,555.1,679.5,556.9z"/>
	</g>
	<g id="XMLID_2821_">
		<g id="XMLID_829_">
			<path id="XMLID_2562_" class="st1" d="M672.7,539.9l-57-33.2c-0.3-0.2-0.6-0.5-0.7-0.9l-14.2-38.6c-0.1-0.4-0.4-0.6-0.7-0.8
				l-49.6-29.8c-0.8-0.5-1-1.5-0.6-2.2l0,0c0.5-0.8,1.5-1,2.2-0.6l50.6,30.4c0.3,0.2,0.6,0.5,0.7,0.8l14.2,38.5
				c0.1,0.4,0.4,0.7,0.7,0.9l55.9,32.7c0.8,0.5,1,1.5,0.6,2.2l0,0C674.5,540.1,673.5,540.4,672.7,539.9z"/>
		</g>
		<path id="XMLID_2566_" class="st1" d="M680.7,541.8c-3.2,1.8-8.3,1.8-11.5,0s-3.2-4.8,0-6.6s8.3-1.8,11.5,0S683.9,540,680.7,541.8
			z"/>
	</g>
	<g id="XMLID_2820_">
		<g id="XMLID_828_">
			<path id="XMLID_2561_" class="st1" d="M672.7,551.8l-67.8-39.7c-0.3-0.2-0.6-0.5-0.7-0.8l-14.1-38.6c-0.1-0.4-0.4-0.6-0.7-0.8
				l-49.6-29.8c-0.8-0.5-1-1.5-0.6-2.2l0,0c0.5-0.8,1.5-1,2.2-0.6l50.6,30.4c0.3,0.2,0.6,0.5,0.7,0.8l14.2,38.5
				c0.1,0.4,0.4,0.7,0.7,0.8l66.8,39.1c0.8,0.5,1,1.5,0.6,2.2l0,0C674.5,551.9,673.5,552.2,672.7,551.8z"/>
		</g>
		<path id="XMLID_826_" class="st1" d="M681.6,555c-3.2,1.8-8.3,1.8-11.5,0s-3.2-4.8,0-6.6s8.3-1.8,11.5,0
			C684.7,550.2,684.7,553.2,681.6,555z"/>
	</g>
</g>
<path id="XMLID_948_" class="st8" d="M659.8,289.7l-159-92.2c-0.2-0.1-0.3-0.2-0.5-0.3l0,0l0,0c-3.8-2.1-9.3-1.3-14.9,2.9
	L227.6,391.3c-6.3,4.6-11.9,11.9-15.5,20l-6,33.9c-2.3,5.2-1.3,9.4,1.5,10.3L365.5,547L659.8,289.7z"/>
<path id="XMLID_944_" class="st8" d="M365.6,548.6l-158.6-92c-1.1-0.3-2.1-1.3-2.7-2.7c-1.1-2.4-0.8-5.7,0.7-9.1l5.9-33.6
	c3.7-8.6,9.5-16.1,16-20.8l257.8-191.3c5.9-4.4,11.9-5.4,16.3-2.9c0.3,0.2,0.4,0.2,0.6,0.3l158.6,92l0.6,2.2L365.6,548.6z
	 M495.7,197.3c-2.9,0-6.2,1.3-9.6,3.8L228.3,392.3c-6.1,4.5-11.6,11.6-15.1,19.6l-5.9,33.6c-1.3,3-1.6,5.7-0.8,7.4
	c0.3,0.8,0.8,1.2,1.5,1.5l157.3,91.2l292.4-255.7l-157.8-91.5C498.6,197.7,497.2,197.3,495.7,197.3z"/>
<path id="XMLID_943_" class="st9" d="M682.9,358.4l-17.2-61.1c-0.8-4.7-3.2-8-6.8-9.4c-4.2-1.7-9.8-0.4-15.1,3.5L386,482.6
	c-1.9,1.4-3.8,3.1-5.6,5c-6.4,6.7-10.3,15.3-11.9,24.4l-4.4,25.2c-0.8,5.7,0.1,10.7,0.7,10.9c1.2,0.3,2,1.2,3.2,1.2s2.5-0.4,3.8-1.2
	l300.4-168.3C679.1,375.8,684.2,365.7,682.9,358.4z"/>
<path id="XMLID_941_" class="st9" d="M601,298.8L478.1,229c-4.2-2.4-9.4-2.1-13.2,0.8L247.7,388.7c-1.3,1-1.8,1-7.2,5.3
	c-6.5,5.3-5.8,10.7-4.4,11.6L358,476.5c2.2,1.3,4.6,1.9,7,1.9c2.9,0,5.8-0.9,8.2-2.7l228.4-167.2c1.6-1.2,2.5-3.1,2.4-5
	C603.8,301.5,602.7,299.7,601,298.8z"/>
<path id="XMLID_940_" class="st9" d="M652.6,256.7l-36-13.4l-89.2-50.7c-3.7-2.1-8.4-1.9-11.9,0.7l-10.9,8.2l-7.1-2.6v9.9v0.1l0,0
	l0,0c0.1,1.1,0.7,2.3,1.8,2.9l121.9,70.9c3.6,2.1,7.9,2.2,11.6,0.5l0,0c0,0,5.4-2.1,8.8-2.1c3.4,0.1,4.6,0.8,4.6,0.8l6.4,3.7
	L652.6,256.7z"/>
<path id="XMLID_938_" class="st8" d="M371.5,480.9l226.6-171.7l-121-68.3c-3.7-2.1-8.4-1.9-11.9,0.7L240,407.7l117.7,69
	C362,479.2,367.1,484.1,371.5,480.9z"/>
<path id="XMLID_858_" class="st8" d="M553.1,413.6c-3.2-1.2-6.7-0.8-9.5,1.1l-136,90.1c-6.3,4.2-11.1,10.5-13.4,17.7l-5.4,16.1
	l3.2-1.8l4.6-13.5c2.1-6.7,6.5-12.5,12.4-16.4l136-90.1c1.4-0.9,2.9-1.4,4.4-1.4c0.9,0,1.9,0.2,2.8,0.5c2.4,0.9,4.3,2.9,5,5.4
	l5.8,19.8l2.2-1.3l-5.7-19.2C558.6,417.4,556.3,414.8,553.1,413.6z"/>
<path id="XMLID_335_" class="st10" d="M365.1,476.4l217.1-166l-105-59.6c-3.7-2.1-8.4-1.9-11.9,0.7l-215.2,159L365.1,476.4z"/>
<path id="XMLID_3_" class="st9" d="M653.3,255.9c0.2-0.2,0.5-0.1,0.5,0.2l0.2,31l0,0l0.5,1l-9-4.8l0,0c-0.1,0-1.2-0.5-4-0.6
	c-3.1,0-8.3,2-8.3,2l-1.7,0.7v-0.1c-3.7,1.1-7.7,0.7-11-1.2l-121.9-70.9c-1.4-0.8-2.3-2.3-2.4-3.9v-11.9l1.2,0.4
	c0.2,0.1,0.2,0.2,0.2,0.4c-0.3,1.2,0,2.6,1,3.5c0.1,0.1,0.1,0.1,0.1,0.2v7.2c0,0.8,0.5,1.5,1.2,1.9l120.8,70.4
	c0.2,0.1,0.4,0,0.5-0.2l0.7-5.8c0-0.2,0.3-0.4,0.5-0.2c2.2,1.3,4.3,2.9,6.7,2.7c0.1,0,0.1,0,0.2-0.1l1.6-1c0.1,0,0.1-0.1,0.2-0.1
	l1.4,0.1h0.1c1.5-0.3,1.8-3,3.2-3.8C635.7,272.9,639.3,270.1,653.3,255.9z"/>
<path class="st11" d="M241.2,401.8"/>
<g>
	<g>
		<g>
			<g>
				<path class="st12" d="M389.4,70.2c6.1,3.5,6,9.2-0.1,12.8L196,197.1c-6.1,3.6-16,3.7-22.1,0.3L64.5,134.8
					c-6.1-3.5-6-9.2,0.1-12.8L257.8,7.9c6.1-3.6,16-3.7,22.1-0.3L389.4,70.2z"/>
			</g>
		</g>
	</g>
	<g>
		<g>
			<g>
				<g>
					<path class="st13" d="M367.2,87.7c1.7,1,4.6,1,6.3-0.1l3.4-2l-3.5-2l-6.5,3.9L367.2,87.7z"/>
				</g>
			</g>
			<g>
				<g>
					<polygon class="st13" points="365.7,86.8 372.3,83 368.7,80.9 362.1,84.8 					"/>
				</g>
			</g>
			<g>
				<g>
					<path class="st13" d="M356,81.2l0.4,0.2l6.5-3.9l-3.5-2l-3.4,2C354.3,78.6,354.3,80.3,356,81.2z"/>
				</g>
			</g>
			<g>
				<g>
					<path class="st13" d="M369.4,69.7l-3.2,1.9l-1.1,0.7l-4.5,2.7l3.5,2l1.1,0.6l3.6,2l1.1,0.6l3.6,2l1.1,0.6l3.5,2l4.5-2.7l-3.5-2
						l-1.1-0.6l-3.6-2l-1.1-0.6l-3.6-2l-1.1-0.6l1.1-0.7l6.4-3.8l-0.4-0.2C374,68.6,371.2,68.6,369.4,69.7z"/>
				</g>
			</g>
			<g>
				<g>
					<polygon class="st13" points="361,84.1 367.6,80.3 364,78.2 357.5,82.1 					"/>
				</g>
			</g>
			<g>
				<g>
					<polygon class="st13" points="374.4,76.3 380.8,72.5 377.2,70.4 370.8,74.2 					"/>
				</g>
			</g>
			<g>
				<g>
					<polygon class="st13" points="379,79 385.4,75.2 381.9,73.1 375.5,76.9 					"/>
				</g>
			</g>
			<g>
				<g>
					<path class="st13" d="M383.6,81.6l3.2-1.9c1.8-1,1.8-2.7,0.1-3.7l-0.4-0.2l-6.4,3.8L383.6,81.6z"/>
				</g>
			</g>
		</g>
		<g>
			<g>
				<polygon class="st14" points="241.2,47.1 284.8,21.3 338.7,52.2 295.1,77.9 				"/>
			</g>
		</g>
		<g>
			<g>
				<polygon class="st14" points="303.9,75.4 334.5,57.3 337.7,59.1 307.1,77.2 				"/>
			</g>
		</g>
		<g>
			<g>
				<polygon class="st14" points="310.4,76.8 337,61.1 340.2,62.9 313.7,78.6 				"/>
			</g>
		</g>
		<g>
			<path class="st14" d="M342,69.4c-1.9,0.8-2.6,2.2-3.4,3.4c-2.2,3.2-4,6.5-5.5,9.8c-0.8,1.8-1.5,3.7-2,5.6
				c-0.3,0.9-0.6,1.8-0.7,2.7c0,0.8,0.3,1.5,1.5,1.9c0.3,0.1,0.7,0,0.9-0.2c4.2-3.2,8.1-6.6,11.6-10.1c-0.5,3-1,6.1-1.7,9.1
				c-0.1,0.5,1.2,0.5,1.3,0c0.8-3.6,1.5-7.1,2-10.7l0.1-0.1c0.6-0.2,1.1-0.3,1.7-0.5c0.8-0.2,0.1-0.8-0.6-0.7c1.4-1.5,2.8-3,4-4.5
				c0.3-0.3-0.3-0.7-0.9-0.5c-1.3,0.4-2.5,0.9-3.7,1.4c0-0.2,0.1-0.4,0.1-0.6c0.1-0.9,0.2-1.8,0.3-2.7c0.1-0.8,0.2-1.6-0.2-2.4
				C346,69.1,343.8,68.6,342,69.4z M349,75.9c-0.9,1.1-1.9,2.1-2.8,3.1c0.1-0.7,0.2-1.4,0.3-2C347.2,76.6,348.1,76.3,349,75.9z
				 M344.7,80.3c-2.1,0.6-4.2,1.3-6.1,2c1.8-1.7,3.9-3.2,6.5-4.6C344.9,78.6,344.8,79.4,344.7,80.3z M345.6,71.1
				c0.1,0.8,0,1.6-0.1,2.3c-0.1,0.8-0.2,1.6-0.2,2.4c0,0.3-0.1,0.5-0.1,0.8c-3.7,1.8-6.8,4.1-9,6.6c-0.3,0.3,0.3,0.7,0.9,0.5
				c2.2-0.9,4.5-1.7,6.9-2.4c-3.6,3.6-7.6,7.1-11.9,10.5c-0.6-0.5-0.4-1.2-0.3-1.8c0.2-0.7,0.4-1.5,0.6-2.2c0.5-1.5,1-3,1.6-4.5
				c1.3-3,2.8-5.9,4.7-8.8c0.5-0.8,1-1.5,1.5-2.2c0.4-0.6,0.8-1.1,1.4-1.6c0.5-0.4,1.2-0.9,2.1-0.9C345,69.7,345.5,70.5,345.6,71.1z
				"/>
		</g>
		<g>
			<g>
				<g>
					<polygon class="st15" points="248.2,30.6 107.9,113.4 101.3,109.7 241.6,26.8 					"/>
				</g>
			</g>
		</g>
		<g>
			<g>
				<g>
					<polygon class="st15" points="232.2,47.1 135.3,104.3 131.5,102.2 228.4,45 					"/>
				</g>
			</g>
		</g>
		<g>
			<g>
				<g>
					<polygon class="st15" points="233.3,72.2 157.4,117 153.6,114.8 229.5,70 					"/>
				</g>
			</g>
		</g>
		<g>
			<g>
				<g>
					<polygon class="st15" points="239.7,75.9 163.8,120.7 160.1,118.5 236,73.7 					"/>
				</g>
			</g>
		</g>
		<g>
			<g>
				<g>
					<polygon class="st15" points="194.2,110.3 170.3,124.4 166.6,122.2 190.4,108.1 					"/>
				</g>
			</g>
		</g>
		<g>
			<g>
				<g>
					<polygon class="st15" points="130.2,133 113,143.2 109.2,141 126.4,130.9 					"/>
				</g>
			</g>
		</g>
		<g>
			<g>
				<g>
					<polygon class="st15" points="147.8,137.7 125.9,150.6 122.2,148.4 144,135.6 					"/>
				</g>
			</g>
		</g>
		<g>
			<g>
				<g>
					<polygon class="st15" points="154.2,141.4 132.4,154.3 128.6,152.1 150.5,139.3 					"/>
				</g>
			</g>
		</g>
		<g>
			<g>
				<g>
					<polygon class="st15" points="167.2,148.8 155,156 151.2,153.8 163.4,146.7 					"/>
				</g>
			</g>
		</g>
		<g>
			<g>
				<g>
					<polygon class="st15" points="179.1,149.3 161.5,159.7 157.7,157.5 175.4,147.1 					"/>
				</g>
			</g>
		</g>
		<g>
			<g>
				<g>
					<polygon class="st15" points="146.8,130.8 119.5,146.9 115.7,144.7 143,128.6 					"/>
				</g>
			</g>
		</g>
		<g>
			<g>
				<g>
					<polygon class="st15" points="230.5,111.4 189.7,135.5 186,133.3 226.7,109.3 					"/>
				</g>
			</g>
		</g>
		<g>
			<g>
				<g>
					<polygon class="st15" points="198,115.6 176.8,128.1 173,125.9 194.2,113.4 					"/>
				</g>
			</g>
		</g>
		<g>
			<g>
				<g>
					<polygon class="st15" points="202,120.7 183.3,131.8 179.5,129.6 198.3,118.6 					"/>
				</g>
			</g>
		</g>
		<g>
			<g>
				<g>
					<polygon class="st15" points="160.7,145.1 148.5,152.3 144.8,150.1 156.9,143 					"/>
				</g>
			</g>
		</g>
		<g>
			<g>
				<g>
					<polygon class="st15" points="224.7,137.4 209.1,146.6 205.4,144.5 221,135.2 					"/>
				</g>
			</g>
		</g>
		<g>
			<g>
				<g>
					<polygon class="st15" points="198.8,152.7 165,172.6 161.3,170.5 195,150.6 					"/>
				</g>
			</g>
		</g>
		<g>
			<g>
				<g>
					<polygon class="st15" points="211.7,160.1 178,180.1 174.2,177.9 207.9,158 					"/>
				</g>
			</g>
		</g>
		<g>
			<g>
				<g>
					<polygon class="st15" points="218.6,126 196.2,139.2 192.4,137 214.9,123.8 					"/>
				</g>
			</g>
		</g>
		<g>
			<g>
				<g>
					<polygon class="st15" points="221.4,131.8 202.7,142.9 198.9,140.8 217.7,129.7 					"/>
				</g>
			</g>
		</g>
		<g>
			<g>
				<g>
					<polygon class="st15" points="177.3,157.9 158.6,168.9 154.8,166.8 173.6,155.7 					"/>
				</g>
			</g>
		</g>
		<g>
			<g>
				<g>
					<polygon class="st15" points="194.1,163.4 171.9,176.6 168.1,174.4 190.4,161.3 					"/>
				</g>
			</g>
		</g>
		<g>
			<g>
				<g>
					<polygon class="st15" points="212.4,167.2 184.4,183.8 180.7,181.6 208.7,165.1 					"/>
				</g>
			</g>
		</g>
		<g>
			<g>
				<g>
					<polygon class="st15" points="247.3,146.6 228.6,157.7 224.8,155.6 243.6,144.5 					"/>
				</g>
			</g>
		</g>
		<g>
			<g>
				<g>
					<polygon class="st15" points="236.2,145.7 222.1,154 218.3,151.9 232.5,143.5 					"/>
				</g>
			</g>
		</g>
		<g>
			<g>
				<g>
					<polygon class="st15" points="249.8,130.1 215.6,150.3 211.9,148.2 246.1,128 					"/>
				</g>
			</g>
		</g>
		<g>
			<g>
				<g>
					<polygon class="st15" points="112.2,129.4 100.8,136.2 95.4,133.1 106.9,126.4 					"/>
				</g>
			</g>
		</g>
		<g>
			<g>
				<path class="st14" d="M145,110.2l1.2-0.7l-4.7-2.7l-1.2,0.7c-0.1,0.1-0.2,0.1-0.4,0.1s-0.3,0-0.4-0.1c-0.1-0.1-0.2-0.1-0.2-0.2
					s0.1-0.2,0.2-0.2l2-1.2l5.4,3.1l0.8-0.5l-1.6-0.9c-0.1-0.1-0.2-0.1-0.2-0.2s0.1-0.2,0.2-0.2c0.1-0.1,0.2-0.1,0.4-0.1
					s0.3,0,0.4,0.1l2,1.2c0.1,0.1,0.2,0.1,0.2,0.2s-0.1,0.2-0.2,0.2l-3.2,1.9c-0.1,0.1-0.2,0.1-0.4,0.1s-0.3,0-0.4-0.1
					c-0.1-0.1-0.2-0.1-0.2-0.2C144.9,110.3,144.9,110.2,145,110.2z"/>
				<path class="st14" d="M155,105.2l-3.6,2.2l-2.7-1.6c-0.2-0.1-0.3-0.3-0.3-0.5s0.1-0.3,0.3-0.5l2.4-1.4l-1.9-1.1l-2.9,1.7
					c-0.1,0.1-0.2,0.1-0.4,0.1s-0.3,0-0.4-0.1c-0.1-0.1-0.2-0.1-0.2-0.2s0.1-0.2,0.2-0.2l2.9-1.7c0.2-0.1,0.5-0.2,0.8-0.2
					s0.6,0.1,0.8,0.2l1.9,1.1c0.2,0.1,0.3,0.3,0.3,0.5s-0.1,0.3-0.3,0.5l-2.4,1.4l1.9,1.1l2.8-1.7c0.1-0.1,0.2-0.1,0.4-0.1
					s0.3,0,0.4,0.1c0.1,0.1,0.2,0.1,0.2,0.2C155.1,105.1,155.1,105.1,155,105.2z"/>
				<path class="st14" d="M155.8,98.4l1.5,0.8c0.3,0.2,0.5,0.4,0.5,0.7c0.5,0,0.8,0.1,1.1,0.3l1.5,0.9c0.2,0.1,0.3,0.3,0.3,0.5
					s-0.1,0.3-0.3,0.5l-2.8,1.7c-0.1,0.1-0.2,0.1-0.4,0.1s-0.3,0-0.4-0.1c-0.1-0.1-0.2-0.1-0.2-0.2s0.1-0.2,0.2-0.2l2.8-1.7
					l-1.5-0.9c-0.1-0.1-0.2-0.1-0.4-0.1s-0.3,0-0.4,0.1l-1.6,1c-0.1,0.1-0.2,0.1-0.4,0.1s-0.3,0-0.4-0.1c-0.1-0.1-0.2-0.1-0.2-0.2
					s0.1-0.2,0.2-0.2l1.6-1c0.1-0.1,0.2-0.1,0.2-0.2s-0.1-0.2-0.2-0.2l-1.5-0.9l-2.9,1.7c-0.1,0.1-0.2,0.1-0.4,0.1s-0.3,0-0.4-0.1
					c-0.1-0.1-0.2-0.1-0.2-0.2s0.1-0.2,0.2-0.2l2.9-1.7c0.2-0.1,0.5-0.2,0.8-0.2C155.4,98.2,155.6,98.3,155.8,98.4z"/>
				<path class="st14" d="M165.4,98.6l-1.7-0.9l-2.4,1.4l-3.8-2.2c-0.1-0.1-0.2-0.1-0.2-0.2s0.1-0.2,0.2-0.2
					c0.1-0.1,0.2-0.1,0.4-0.1s0.3,0,0.4,0.1l3,1.7l1.6-0.9l-2.3-1.3c-0.1-0.1-0.2-0.1-0.2-0.2s0.1-0.2,0.2-0.2s0.2-0.1,0.4-0.1
					s0.3,0,0.4,0.1l2.3,1.3c0.1-0.1,0.2-0.1,0.4-0.1s0.3,0,0.4,0.1s0.2,0.1,0.2,0.2s-0.1,0.2-0.2,0.2l1.7,0.9
					c0.1,0.1,0.2,0.1,0.2,0.2s-0.1,0.2-0.2,0.2c-0.1,0.1-0.2,0.1-0.4,0.1C165.6,98.7,165.5,98.7,165.4,98.6z"/>
				<path class="st14" d="M169.7,95.6l1.9-1.1l-1.9-1.1l-2.4,1.4l-3.5-2l2.8-1.7c0.1-0.1,0.2-0.1,0.4-0.1s0.3,0,0.4,0.1
					c0.1,0.1,0.2,0.1,0.2,0.2s-0.1,0.2-0.2,0.2l-2,1.2l1.9,1.1l1.6-1c0.2-0.1,0.5-0.2,0.8-0.2s0.6,0.1,0.8,0.2l1.9,1.1
					c0.2,0.1,0.3,0.3,0.3,0.5s-0.1,0.3-0.3,0.5l-1.9,1.1c-0.2,0.1-0.4,0.2-0.6,0.2l-0.9,0.2c-0.2,0.1-0.4,0-0.6-0.1
					c-0.1-0.1-0.2-0.1-0.2-0.2s0-0.2,0.2-0.2c0.1,0,0.2-0.1,0.3-0.1l0.8-0.2C169.6,95.7,169.6,95.6,169.7,95.6z"/>
				<path class="st14" d="M169.1,89.6l0.4-0.2c0.1-0.1,0.2-0.1,0.4-0.1s0.3,0,0.4,0.1c0.1,0.1,0.2,0.1,0.2,0.2s-0.1,0.2-0.2,0.2
					l2.6,1.5l2.8-1.7c0.1-0.1,0.2-0.1,0.4-0.1s0.3,0,0.4,0.1l2,1.2c0.1,0.1,0.2,0.1,0.2,0.2s-0.1,0.2-0.2,0.2l-3.2,1.9
					c-0.1,0.1-0.2,0.1-0.4,0.1s-0.3,0-0.4-0.1l-5.4-3.1c-0.1-0.1-0.2-0.1-0.2-0.2C168.9,89.8,169,89.7,169.1,89.6z M173.7,91.8
					l1.2,0.7l2.4-1.4l-1.2-0.7L173.7,91.8z"/>
				<path class="st14" d="M175.3,86.8l-0.3-0.2c-0.1-0.1-0.2-0.1-0.2-0.2s0.1-0.2,0.2-0.2l3.6-2.1l2.4,1.4c0.1,0.1,0.2,0.2,0.2,0.3
					l-0.2,1.6l1.8,1.1c0.1,0.1,0.2,0.1,0.2,0.2s-0.1,0.2-0.2,0.2c-0.1,0.1-0.2,0.1-0.4,0.1s-0.3,0-0.4-0.1l-2-1.1
					c-0.2-0.1-0.2-0.2-0.2-0.3l0.2-1.6l-1.5-0.8l-2.4,1.4c0.2,0.2,0.1,0.3-0.1,0.4c-0.1,0.1-0.2,0.1-0.4,0.1
					C175.6,86.9,175.4,86.9,175.3,86.8z"/>
				<path class="st14" d="M185.9,86l-1.9-1.1c-0.2-0.1-0.3-0.3-0.3-0.5s0.1-0.3,0.3-0.5l-2.3-1.2c-0.1-0.1-0.2-0.1-0.2-0.2
					s0.1-0.2,0.2-0.2l1.6-1c0.1-0.1,0.2-0.1,0.4-0.1s0.3,0,0.4,0.1l2.3,1.3c0.2-0.1,0.5-0.2,0.8-0.2s0.6,0.1,0.8,0.2l1.9,1.1
					c0.2,0.1,0.3,0.3,0.3,0.5s-0.1,0.3-0.3,0.5l-2.4,1.4c-0.2,0.1-0.5,0.2-0.8,0.2C186.4,86.2,186.1,86.1,185.9,86z M184.8,84.4
					l1.9,1.1l2.4-1.4l-1.9-1.1L184.8,84.4z M182.9,82.4l1.9,1.1l0.8-0.5l-1.9-1.1L182.9,82.4z"/>
				<path class="st14" d="M196.3,80.8l-0.4,0.2c-0.1,0.1-0.2,0.1-0.4,0.1s-0.3,0-0.4-0.1s-0.2-0.1-0.2-0.2s0.1-0.2,0.2-0.2l-2.6-1.5
					l-2.8,1.7c-0.1,0.1-0.2,0.1-0.4,0.1s-0.3,0-0.4-0.1l-2-1.2c-0.1-0.1-0.2-0.1-0.2-0.2s0.1-0.2,0.2-0.2l3.2-1.9
					c0.1-0.1,0.2-0.1,0.4-0.1s0.3,0,0.4,0.1l5.4,3.1c0.1,0.1,0.2,0.1,0.2,0.2C196.4,80.7,196.4,80.8,196.3,80.8z M191.7,78.7
					l-1.2-0.7l-2.4,1.4l1.2,0.7L191.7,78.7z"/>
				<path class="st14" d="M197.8,79.1l-4.7-2.7c-0.2-0.1-0.3-0.3-0.3-0.4c0-0.2,0.1-0.3,0.3-0.5l2.5-1.5c0.2-0.1,0.5-0.2,0.8-0.2
					s0.6,0.1,0.8,0.2l4.7,2.7c0.2,0.1,0.3,0.3,0.3,0.4c0,0.2-0.1,0.3-0.3,0.4l-2.5,1.5c-0.2,0.1-0.5,0.2-0.8,0.2
					C198.2,79.2,198,79.2,197.8,79.1z M201,77.1l-4.7-2.7l-2.4,1.4l4.7,2.7L201,77.1z"/>
				<path class="st14" d="M203.6,75.6l-4.7-2.7c-0.2-0.1-0.3-0.3-0.3-0.4c0-0.2,0.1-0.3,0.3-0.5l2.5-1.5c0.2-0.1,0.5-0.2,0.8-0.2
					s0.6,0.1,0.8,0.2l4.7,2.7c0.2,0.1,0.3,0.3,0.3,0.4c0,0.2-0.1,0.3-0.3,0.4l-2.5,1.5c-0.2,0.1-0.5,0.2-0.8,0.2
					C204.1,75.8,203.9,75.7,203.6,75.6z M206.9,73.7l-4.7-2.7l-2.4,1.4l4.7,2.7L206.9,73.7z"/>
				<path class="st14" d="M209.5,72.1l-4.7-2.7c-0.2-0.1-0.3-0.3-0.3-0.4c0-0.2,0.1-0.3,0.3-0.5l2.5-1.5c0.2-0.1,0.5-0.2,0.8-0.2
					s0.6,0.1,0.8,0.2l4.7,2.7c0.2,0.1,0.3,0.3,0.3,0.4c0,0.2-0.1,0.3-0.3,0.4l-2.5,1.5c-0.2,0.1-0.5,0.2-0.8,0.2
					C210,72.3,209.8,72.2,209.5,72.1z M212.8,70.2l-4.7-2.7l-2.4,1.4l4.7,2.7L212.8,70.2z"/>
				<path class="st14" d="M215.4,68.6l-4.7-2.7c-0.2-0.1-0.3-0.3-0.3-0.4c0-0.2,0.1-0.3,0.3-0.5l2.5-1.5c0.2-0.1,0.5-0.2,0.8-0.2
					s0.6,0.1,0.8,0.2l4.7,2.7c0.2,0.1,0.3,0.3,0.3,0.4c0,0.2-0.1,0.3-0.3,0.4l-2.5,1.5c-0.2,0.1-0.5,0.2-0.8,0.2
					C215.9,68.8,215.7,68.7,215.4,68.6z M218.7,66.7L214,64l-2.4,1.4l4.7,2.7L218.7,66.7z"/>
				<path class="st14" d="M225.8,63.4l-3.6,2.2l-2.7-1.6c-0.2-0.1-0.3-0.3-0.3-0.5s0.1-0.3,0.3-0.5l2.4-1.4l-1.9-1.1l-2.9,1.7
					c-0.1,0.1-0.2,0.1-0.4,0.1s-0.3,0-0.4-0.1s-0.2-0.1-0.2-0.2c0-0.1,0.1-0.2,0.2-0.2l2.9-1.7c0.2-0.1,0.5-0.2,0.8-0.2
					s0.6,0.1,0.8,0.2l1.9,1.1c0.2,0.1,0.3,0.3,0.3,0.5s-0.1,0.3-0.3,0.5l-2.4,1.4l1.9,1.1L225,63c0.1-0.1,0.2-0.1,0.4-0.1
					s0.3,0,0.4,0.1s0.2,0.1,0.2,0.2C225.9,63.3,225.9,63.4,225.8,63.4z"/>
			</g>
		</g>
	</g>
</g>
<g id="XMLID_772_">
	<path id="XMLID_265_" class="st16" d="M189.8,324.5v-8.8l-144.1-2.9v7.6c-0.5,1.6,0.2,3.2,2.1,4.3l65.4,38.7
		c3.4,2,9.3,1.8,13.3-0.4l60.1-33.8C188.9,327.8,190,326.1,189.8,324.5z"/>
	<path id="XMLID_266_" class="st16" d="M119.1,365.8c-2.4,0-4.7-0.5-6.4-1.5l-65.4-38.7c-2.2-1.3-3.2-3.3-2.6-5.3v-8.5l146.1,2.9
		v9.8c0.2,2.1-1.2,4.1-3.8,5.6l-60.1,33.8C124.7,365.2,121.8,365.8,119.1,365.8z M46.7,313.8v6.8v0.1c-0.5,1.6,0.8,2.7,1.7,3.2
		l65.4,38.7c3.1,1.8,8.7,1.6,12.3-0.4l60.1-33.8c1.9-1.1,2.9-2.5,2.8-3.7v-0.1v-7.9L46.7,313.8z"/>
</g>
<g id="XMLID_771_">
	<g>
		<path id="XMLID_71_" class="st17" d="M113.2,353.8l-65.4-38.7c-3.4-2-2.9-5.4,1-7.7l60.1-33.8c4-2.2,9.9-2.4,13.3-0.4l65.4,38.7
			c3.4,2,2.9,5.4-1,7.7l-60.1,33.8C122.5,355.6,116.6,355.8,113.2,353.8z"/>
		<path id="XMLID_68_" class="st17" d="M119.1,356.2c-2.4,0-4.7-0.5-6.4-1.5l0,0L47.3,316c-1.8-1.1-2.8-2.6-2.7-4.2
			c0-1.9,1.4-3.8,3.8-5.2l60.1-33.8c4.3-2.4,10.6-2.6,14.3-0.4l65.4,38.7c1.8,1.1,2.8,2.6,2.7,4.2c0,1.9-1.4,3.8-3.8,5.2L127,354.3
			C124.7,355.5,121.8,356.2,119.1,356.2z M116.3,272.8c-2.4,0-4.9,0.6-6.9,1.7l-60.1,33.8c-1.8,1-2.8,2.3-2.8,3.5s1,2,1.8,2.5
			l65.4,38.7c3,1.8,8.7,1.6,12.3-0.4l60.1-33.8c1.8-1,2.8-2.2,2.8-3.4c0-1.2-1-2-1.8-2.5l-65.4-38.8
			C120.3,273.2,118.4,272.8,116.3,272.8z"/>
	</g>
</g>
<g id="XMLID_764_">
	<polygon id="XMLID_253_" class="st18" points="92.7,306 117.7,291.6 142.7,306.3 117.7,320.7 	"/>
	<polygon id="XMLID_245_" class="st18" points="92.7,306 92.7,315 117.7,329.8 117.7,320.7 	"/>
</g>
<g>
	<path class="st17" d="M123.5,293.2l-6.9-4.2l-39.8,23.5l6,3.6l8.6-5c-1.1-0.8-1-1.9,0.1-2.6c1.3-0.7,3.4-0.7,4.7,0.1
		c1.3,0.8,1.4,2.1,0.1,2.8c-1.2,0.7-3,0.7-4.4,0l-8.6,5l3.9,2.3l6.7-3.9l0.6,0.4l-6.7,3.9L96,324l16.5-9.5c0,0,1.7-0.9,1.6-2.2
		c0-0.8-0.6-1.5-1.8-2.3l-3.6-2.2c-1.3,0.6-3.2,0.5-4.4-0.3c-1.3-0.8-1.4-2.1-0.1-2.8c1.3-0.7,3.4-0.7,4.7,0.1
		c1.2,0.7,1.4,1.9,0.4,2.6l3.6,2.2c1.4,0.8,2.1,1.7,2.1,2.6c0,1.4-1.6,2.4-1.8,2.5l0,0l-16.5,9.5l5.2,3.1l19.7-11.3
		c-1.1-0.8-1-1.9,0.2-2.6c1.3-0.7,3.4-0.7,4.8,0.1c1.3,0.8,1.4,2.1,0.1,2.8c-1.2,0.7-3.1,0.7-4.4,0l-19.8,11.3l3.5,2.1l13.6-7.8
		c0,0,3.3-1.7,7.1,0.6l8.7,5.2l9.1-5.1l-6.4-3.9l0.6-0.3l6.5,3.9l3.2-1.8l-8.2-4.9c-1.3,0.6-3.2,0.5-4.5-0.3s-1.4-2.1-0.1-2.8
		c1.3-0.7,3.4-0.7,4.8,0.1c1.2,0.7,1.4,1.9,0.3,2.6l8.2,4.9l2.9-1.7l-4.8-2.9l0.6-0.3l4.8,2.9l6.9-3.9l-28.7-17.3l-8.9,5.2
		c1.1,0.8,1,1.9-0.2,2.6c-1.3,0.7-3.4,0.7-4.8-0.1c-1.3-0.8-1.4-2.1-0.1-2.8c1.2-0.7,3.1-0.7,4.4-0.1l8.9-5.2l-5.7-3.5l-6.5,3.8
		l-0.6-0.4L123.5,293.2z"/>
	<path class="st17" d="M119.7,330.4c-1.2,0.7-3,0.7-4.4,0l-4.5,2.6l7.7,4.6l16.3-9.2l-8.7-5.2c-3.2-1.9-5.8-0.6-5.9-0.6l-13.6,7.8
		l3.7,2.2l4.5-2.6c-1-0.8-1-1.9,0.2-2.5c1.3-0.7,3.4-0.7,4.7,0.1C120.9,328.4,120.9,329.6,119.7,330.4z"/>
	<path class="st16" d="M133.7,284.8l-1.8-1.1l-7,4.1l-4.5-2.7c-2.2-1.3-5.7-1.4-7.9-0.1l-4.3,2.6l-7.3-4.4l-1.7,1l7.2,4.4l-3.7,2.1
		l-7.2-4.4l-1.7,1l7.2,4.3l-3.7,2.2l-7.2-4.3l-1.7,1l7.2,4.3l-3.7,2.2l-7.2-4.3l-1.7,1l7.2,4.3l-3.7,2.2l-7.2-4.3l-1.7,1l7.2,4.3
		l-3.7,2.2l-7.2-4.3l-1.7,1l7.2,4.3l-3.6,2.2l-7.1-4.3l-1.7,1l7.1,4.3l-4.1,2.5c-2,1.2-1.9,3.2,0.3,4.5l4.4,2.6l-6.5,3.9l1.8,1.1
		l6.6-3.9l3.9,2.3l-6.6,3.8l1.8,1.1l6.6-3.8l3.9,2.3l-6.6,3.8l1.8,1.1l6.6-3.8l3.9,2.3l-6.6,3.8l1.8,1.1l6.6-3.8l3.9,2.3l-6.6,3.8
		l1.8,1.1l6.6-3.8l3.9,2.3l-6.6,3.8l1.8,1.1l6.6-3.8l3.9,2.3l-6.7,3.8l1.8,1.1l6.7-3.8l4.4,2.6c2.1,1.3,5.6,1.4,7.6,0.2l4.2-2.4
		l7.1,4.2l1.7-1l-7.1-4.2l3.7-2.1l7.1,4.2l1.7-1l-7.1-4.2l3.7-2.1l7.1,4.3l1.7-1l-7.1-4.3l3.8-2.1l7.1,4.3l1.8-1l-7.1-4.3l3.8-2.1
		l7.1,4.3l1.8-1l-7.1-4.3l3.8-2.1l7.1,4.3l1.8-1l-7.2-4.3l3.8-2.1l7.2,4.3l1.8-1l-7.2-4.3l4.4-2.5c2.2-1.2,2.1-3.3-0.1-4.6l-4.5-2.7
		l7.1-4l-1.8-1.1l-7.1,4l-4-2.4l7.1-4l-1.8-1.1l-7.1,4l-4-2.4l7.1-4.1l-1.8-1.1l-7.1,4.1l-4-2.4l7.1-4.1l-1.8-1.1l-7.1,4.1l-4-2.4
		l7-4.1l-1.8-1.1l-7,4.1l-4-2.4l7-4.1l-1.8-1.1l-7,4.1l-4-2.4L133.7,284.8z M161.5,314.7l-43,24.1l-44.1-26.4l42.1-24.9L161.5,314.7
		z"/>
	<path class="st1" d="M116.5,302.3c-1.3,0.8-1.2,2,0.1,2.8s3.5,0.9,4.8,0.1c1.2-0.7,1.2-1.8,0.2-2.6l8.9-5.2l-0.6-0.4l-8.9,5.2
		C119.6,301.6,117.7,301.6,116.5,302.3z"/>
	<path class="st1" d="M114.7,330l-4.5,2.6l0.6,0.4l4.5-2.6c1.3,0.6,3.2,0.6,4.4,0c1.3-0.7,1.2-1.9-0.1-2.7c-1.3-0.8-3.4-0.9-4.7-0.1
		C113.7,328.1,113.6,329.2,114.7,330z"/>
	<path class="st1" d="M114.2,312.3c0,1.3-1.6,2.2-1.6,2.2L96.1,324l0.6,0.4l16.5-9.5l0,0c0.3-0.2,1.9-1.1,1.8-2.5
		c0-0.9-0.7-1.8-2.1-2.6l-3.6-2.2c1-0.8,0.9-1.9-0.4-2.6c-1.3-0.8-3.5-0.9-4.7-0.1c-1.3,0.7-1.2,2,0.1,2.8c1.2,0.7,3.1,0.8,4.4,0.3
		l3.6,2.2C113.6,310.8,114.2,311.6,114.2,312.3z"/>
	<path class="st1" d="M101.9,327.6l0.6,0.4l19.8-11.3c-0.1-0.1-0.2-0.1-0.3-0.2s-0.2-0.1-0.3-0.2L101.9,327.6z"/>
	<path class="st1" d="M135.3,328.1l-8.7-5.2c-3.8-2.3-7-0.6-7.1-0.6l-13.6,7.8l0.6,0.4l13.6-7.8c0.1-0.1,2.7-1.4,5.9,0.6l8.7,5.2
		L135.3,328.1z"/>
	<path class="st1" d="M148.2,320.9l0.6-0.3l-8.2-4.9c-0.1,0.1-0.2,0.1-0.3,0.2s-0.2,0.1-0.3,0.1L148.2,320.9z"/>
	<polygon class="st1" points="145,322.6 138.5,318.8 138,319.1 144.4,323 	"/>
	<polygon class="st1" points="152.3,318.5 147.5,315.6 146.9,316 151.7,318.9 	"/>
	<polygon class="st1" points="124.1,293.6 123.5,293.2 117,297 117.6,297.4 	"/>
	<path class="st1" d="M82.8,316.2l0.6,0.4l8.6-5c-0.1-0.1-0.2-0.1-0.3-0.2s-0.2-0.1-0.3-0.2L82.8,316.2z"/>
	<polygon class="st1" points="94.5,315.3 93.9,314.9 87.2,318.8 87.8,319.2 	"/>
	<path class="st19" d="M161.5,314.7l-45-27.1l-42.1,24.9l44.1,26.4L161.5,314.7z M110.8,332.9l-0.6-0.4l-3.7-2.2l-0.6-0.4l-3.5-2.1
		l-0.6-0.4l-5.2-3.1l-0.6-0.4l-8.2-4.9l-0.6-0.4l-3.9-2.3l-0.6-0.4l-6-3.6l39.8-23.5l6.9,4.2l0.6,0.4l5.7,3.5l0.6,0.4l28.7,17.3
		l-6.9,3.9l-0.6,0.3l-2.9,1.7l-0.6,0.3l-3.2,1.8l-0.6,0.3l-9.1,5.1l-0.6,0.3l-16.3,9.2L110.8,332.9z"/>
	<path class="st1" d="M91.3,311.1c0.1,0.1,0.2,0.1,0.3,0.2s0.2,0.1,0.3,0.2c1.3,0.6,3.2,0.6,4.4,0c1.3-0.7,1.2-2-0.1-2.8
		s-3.4-0.9-4.7-0.1C90.3,309.2,90.3,310.3,91.3,311.1z"/>
	<path class="st1" d="M121.6,316.3c0.1,0.1,0.2,0.1,0.3,0.2s0.2,0.1,0.3,0.2c1.3,0.6,3.2,0.6,4.4,0c1.3-0.7,1.2-2-0.1-2.8
		s-3.5-0.9-4.8-0.1C120.6,314.3,120.5,315.5,121.6,316.3z"/>
	<path class="st1" d="M135.6,315.7c1.2,0.7,3.2,0.8,4.5,0.3c0.1,0,0.2-0.1,0.3-0.1c0.1-0.1,0.2-0.1,0.3-0.2c1-0.8,0.9-1.9-0.3-2.6
		c-1.3-0.8-3.5-0.9-4.8-0.1C134.2,313.6,134.2,314.9,135.6,315.7z"/>
</g>
<g id="XMLID_15_">
	<path id="XMLID_20_" class="st16" d="M445.3,120.3v-3.7l-60.2-1.2v3.2c-0.2,0.7,0.1,1.3,0.9,1.8l27.3,16.1c1.4,0.8,3.9,0.8,5.6-0.2
		l25.1-14.1C444.9,121.7,445.3,121,445.3,120.3z"/>
	<path id="XMLID_16_" class="st16" d="M415.7,137.6c-1,0-2-0.2-2.7-0.6l-27.3-16.2c-0.9-0.5-1.3-1.4-1.1-2.2V115l61,1.2v4.1
		c0.1,0.9-0.5,1.7-1.6,2.3l-25.1,14.1C418,137.3,416.9,137.6,415.7,137.6z M385.5,115.8v2.8v0.1c-0.2,0.7,0.3,1.1,0.7,1.3l27.3,16.1
		c1.3,0.8,3.6,0.7,5.1-0.2l25.1-14.1c0.8-0.4,1.2-1,1.2-1.6l0,0v-3.3L385.5,115.8z"/>
</g>
<g id="XMLID_4_">
	<g>
		<path id="XMLID_89_" class="st17" d="M413.2,132.5l-27.3-16.1c-1.4-0.8-1.2-2.3,0.4-3.2l25.1-14.1c1.7-0.9,4.1-1,5.6-0.2
			l27.3,16.1c1.4,0.8,1.2,2.3-0.4,3.2l-25.1,14.1C417.1,133.3,414.7,133.4,413.2,132.5z"/>
		<path id="XMLID_86_" class="st17" d="M415.7,133.5c-1,0-2-0.2-2.7-0.6l0,0l-27.3-16.2c-0.7-0.4-1.2-1.1-1.1-1.8
			c0-0.8,0.6-1.6,1.6-2.2l25.1-14.1c1.8-1,4.4-1.1,6-0.2l27.3,16.1c0.7,0.4,1.2,1.1,1.1,1.8c0,0.8-0.6,1.6-1.6,2.2L419,132.7
			C418,133.3,416.9,133.5,415.7,133.5z M414.5,98.7c-1,0-2.1,0.2-2.9,0.7l-25.1,14.1c-0.7,0.4-1.2,0.9-1.2,1.4s0.4,0.8,0.7,1
			l27.3,16.2c1.3,0.8,3.6,0.7,5.1-0.2l25.1-14.1c0.7-0.4,1.2-0.9,1.2-1.4s-0.4-0.8-0.7-1l-27.3-16.1
			C416.2,98.9,415.4,98.7,414.5,98.7z"/>
	</g>
</g>
<g>
	<path class="st17" d="M417.6,107.2l-2.9-1.7l-16.6,9.8l2.5,1.5l3.6-2.1c-0.4-0.3-0.4-0.8,0-1.1c0.5-0.3,1.4-0.3,2,0
		s0.6,0.9,0.1,1.2c-0.5,0.3-1.3,0.3-1.8,0l-3.6,2.1l1.6,1l2.8-1.6l0.3,0.1l-2.8,1.6l3.4,2.1l6.9-4c0,0,0.7-0.4,0.7-0.9
		c0-0.3-0.3-0.6-0.8-0.9l-1.5-0.9c-0.5,0.2-1.3,0.2-1.8-0.1c-0.6-0.3-0.6-0.9-0.1-1.2c0.5-0.3,1.4-0.3,2,0c0.5,0.3,0.6,0.8,0.2,1.1
		l1.5,0.9c0.6,0.3,0.9,0.7,0.9,1.1c0,0.6-0.7,1-0.8,1.1l0,0l-6.9,4l2.2,1.3l8.3-4.7c-0.4-0.3-0.4-0.8,0.1-1.1c0.5-0.3,1.4-0.3,2,0.1
		c0.6,0.3,0.6,0.9,0,1.2c-0.5,0.3-1.3,0.3-1.8,0l-8.3,4.7l1.5,0.9l5.7-3.3c0,0,1.4-0.7,3,0.3l3.6,2.2l3.8-2.1l-2.7-1.6l0.2-0.1
		l2.7,1.6l1.3-0.7l-3.4-2c-0.5,0.2-1.3,0.2-1.9-0.1c-0.6-0.3-0.6-0.9,0-1.2c0.5-0.3,1.4-0.3,2,0.1c0.5,0.3,0.6,0.8,0.1,1.1l3.4,2
		l1.2-0.7l-2-1.2l0.2-0.1l2,1.2l2.9-1.6l-12-7.2l-3.7,2.2c0.4,0.3,0.4,0.8-0.1,1.1c-0.5,0.3-1.4,0.3-2,0s-0.6-0.9,0-1.2
		c0.5-0.3,1.3-0.3,1.9,0l3.7-2.2l-2.4-1.4l-2.7,1.6l-0.3-0.2L417.6,107.2z"/>
	<path class="st17" d="M415.9,122.7c-0.5,0.3-1.3,0.3-1.8,0l-1.9,1.1l3.2,1.9l6.8-3.8l-3.6-2.2c-1.4-0.8-2.4-0.3-2.5-0.2l-5.7,3.2
		l1.5,0.9l1.9-1.1c-0.4-0.3-0.4-0.8,0.1-1.1c0.5-0.3,1.4-0.3,2,0.1S416.5,122.4,415.9,122.7z"/>
	<path class="st16" d="M421.8,103.7l-0.8-0.5l-2.9,1.7l-1.9-1.1c-0.9-0.6-2.4-0.6-3.3-0.1l-1.8,1.1l-3-1.8l-0.7,0.4l3,1.8l-1.6,0.9
		l-3-1.8l-0.7,0.4l3,1.8l-1.6,0.9l-3-1.8l-0.7,0.4l3,1.8l-1.5,0.9l-3-1.8l-0.7,0.4l3,1.8l-1.5,0.9l-3-1.8l-0.7,0.4l3,1.8l-1.5,0.9
		l-3-1.8l-0.7,0.4l3,1.8l-1.5,0.9l-3-1.8l-0.7,0.4l3,1.8l-1.7,1c-0.8,0.5-0.8,1.3,0.1,1.9l1.9,1.1l-2.7,1.6l0.7,0.4l2.7-1.6l1.6,1
		l-2.7,1.6l0.7,0.4l2.7-1.6l1.6,1l-2.7,1.6l0.7,0.4l2.8-1.6l1.6,1l-2.8,1.6l0.7,0.4l2.8-1.6l1.6,1l-2.8,1.6l0.7,0.4l2.8-1.6l1.6,1
		l-2.8,1.6l0.7,0.4l2.8-1.6l1.6,1l-2.8,1.6l0.7,0.4l2.8-1.6l1.8,1.1c0.9,0.5,2.3,0.6,3.2,0.1l1.8-1l2.9,1.8l0.7-0.4l-2.9-1.8
		l1.6-0.9l3,1.8l0.7-0.4l-3-1.8l1.6-0.9l3,1.8l0.7-0.4l-3-1.8l1.6-0.9l3,1.8l0.7-0.4l-3-1.8l1.6-0.9l3,1.8l0.7-0.4l-3-1.8l1.6-0.9
		l3,1.8l0.7-0.4l-3-1.8l1.6-0.9l3,1.8l0.7-0.4l-3-1.8l1.8-1c0.9-0.5,0.9-1.4,0-1.9l-1.9-1.1l3-1.7l-0.8-0.5l-3,1.7l-1.7-1l3-1.7
		l-0.8-0.5l-3,1.7l-1.7-1l3-1.7l-0.8-0.5l-3,1.7l-1.7-1l3-1.7l-0.8-0.5l-2.9,1.7l-1.7-1l2.9-1.7l-0.8-0.5l-2.9,1.7l-1.7-1l2.9-1.7
		l-0.8-0.5l-2.9,1.7l-1.7-1L421.8,103.7z M433.4,116.2l-18,10.1l-18.4-11l17.6-10.4L433.4,116.2z"/>
	<path class="st1" d="M414.6,111c-0.5,0.3-0.5,0.8,0,1.2c0.6,0.3,1.5,0.4,2,0c0.5-0.3,0.5-0.8,0.1-1.1l3.7-2.2l-0.3-0.2l-3.7,2.2
		C415.9,110.7,415.1,110.7,414.6,111z"/>
	<path class="st1" d="M413.9,122.6l-1.9,1.1l0.2,0.1l1.9-1.1c0.6,0.3,1.3,0.3,1.8,0s0.5-0.8,0-1.1c-0.6-0.3-1.4-0.4-2-0.1
		C413.4,121.8,413.4,122.3,413.9,122.6z"/>
	<path class="st1" d="M413.7,115.2c0,0.5-0.7,0.9-0.7,0.9l-6.9,4l0.2,0.1l6.9-4l0,0c0.1-0.1,0.8-0.5,0.8-1.1c0-0.4-0.3-0.7-0.9-1.1
		l-1.5-0.9c0.4-0.3,0.4-0.8-0.2-1.1c-0.6-0.3-1.5-0.4-2,0c-0.5,0.3-0.5,0.8,0.1,1.2c0.5,0.3,1.3,0.3,1.8,0.1l1.5,0.9
		C413.4,114.6,413.7,114.9,413.7,115.2z"/>
	<path class="st1" d="M408.5,121.6l0.2,0.1l8.3-4.7c0,0-0.1,0-0.1-0.1s-0.1-0.1-0.1-0.1L408.5,121.6z"/>
	<path class="st1" d="M422.5,121.8l-3.6-2.2c-1.6-1-2.9-0.3-3-0.3l-5.7,3.3l0.2,0.1l5.7-3.2c0,0,1.1-0.6,2.5,0.2l3.6,2.2
		L422.5,121.8z"/>
	<path class="st1" d="M427.9,118.8l0.2-0.1l-3.4-2l-0.1,0.1c0,0-0.1,0-0.1,0.1L427.9,118.8z"/>
	<polygon class="st1" points="426.5,119.5 423.8,117.9 423.6,118 426.3,119.7 	"/>
	<polygon class="st1" points="429.6,117.8 427.6,116.6 427.3,116.7 429.3,117.9 	"/>
	<polygon class="st1" points="417.8,107.4 417.6,107.2 414.8,108.8 415.1,109 	"/>
	<path class="st1" d="M400.5,116.8l0.2,0.1l3.6-2.1c0,0-0.1,0-0.1-0.1l-0.1-0.1L400.5,116.8z"/>
	<polygon class="st1" points="405.4,116.5 405.2,116.3 402.4,117.9 402.6,118.1 	"/>
	<path class="st19" d="M433.4,116.2l-18.8-11.3L397,115.3l18.4,11L433.4,116.2z M412.2,123.8l-0.2-0.1l-1.5-0.9l-0.2-0.1l-1.5-0.9
		l-0.2-0.1l-2.2-1.3l-0.2-0.1l-3.4-2.1l-0.2-0.1l-1.6-1l-0.2-0.1l-2.5-1.5l16.6-9.8l2.9,1.7l0.3,0.2l2.4,1.4l0.3,0.2l12,7.2
		l-2.9,1.6l-0.2,0.1l-1.2,0.7l-0.2,0.1l-1.3,0.7l-0.2,0.1l-3.8,2.1l-0.2,0.1l-6.8,3.8L412.2,123.8z"/>
	<path class="st1" d="M404.1,114.7l0.1,0.1c0,0,0.1,0,0.1,0.1c0.6,0.3,1.3,0.3,1.8,0s0.5-0.8-0.1-1.2s-1.4-0.4-2,0
		C403.7,113.9,403.7,114.4,404.1,114.7z"/>
	<path class="st1" d="M416.8,116.9l0.1,0.1c0,0,0.1,0,0.1,0.1c0.6,0.3,1.4,0.3,1.8,0c0.5-0.3,0.5-0.8,0-1.2c-0.6-0.3-1.5-0.4-2-0.1
		S416.3,116.5,416.8,116.9z"/>
	<path class="st1" d="M422.6,116.6c0.5,0.3,1.3,0.4,1.9,0.1c0,0,0.1,0,0.1-0.1l0.1-0.1c0.4-0.3,0.4-0.8-0.1-1.1
		c-0.6-0.3-1.5-0.4-2-0.1C422,115.8,422,116.3,422.6,116.6z"/>
</g>
<g>
	<g>
		<g>
			<g>
				<path class="st12" d="M389.4,70.2c6.1,3.5,6,9.2-0.1,12.8L196,197.1c-6.1,3.6-16,3.7-22.1,0.3L64.5,134.8
					c-6.1-3.5-6-9.2,0.1-12.8L257.8,7.9c6.1-3.6,16-3.7,22.1-0.3L389.4,70.2z"/>
			</g>
		</g>
	</g>
	<g>
		<g>
			<g>
				<g>
					<path class="st20" d="M367.7,87c1.7,1,4.6,1,6.3-0.1l3.4-2l-3.5-2l-6.5,3.9L367.7,87z"/>
				</g>
			</g>
			<g>
				<g>
					<polygon class="st20" points="366.2,86.1 372.8,82.3 369.2,80.2 362.6,84.1 					"/>
				</g>
			</g>
			<g>
				<g>
					<path class="st20" d="M356.5,80.5l0.4,0.2l6.5-3.9l-3.5-2l-3.4,2C354.8,77.9,354.8,79.6,356.5,80.5z"/>
				</g>
			</g>
			<g>
				<g>
					<path class="st20" d="M369.9,69l-3.2,1.9l-1.1,0.7l-4.5,2.7l3.5,2l1.1,0.6l3.6,2l1.1,0.6l3.6,2l1.1,0.6l3.5,2l4.5-2.7l-3.5-2
						l-1.1-0.6l-3.6-2l-1.1-0.6l-3.6-2l-1.1-0.6l1.1-0.7l6.4-3.8l-0.4-0.2C374.5,67.9,371.7,67.9,369.9,69z"/>
				</g>
			</g>
			<g>
				<g>
					<polygon class="st20" points="361.5,83.4 368.1,79.6 364.5,77.5 358,81.4 					"/>
				</g>
			</g>
			<g>
				<g>
					<polygon class="st20" points="374.9,75.6 381.3,71.8 377.7,69.7 371.3,73.5 					"/>
				</g>
			</g>
			<g>
				<g>
					<polygon class="st20" points="379.5,78.3 385.9,74.5 382.4,72.4 376,76.2 					"/>
				</g>
			</g>
			<g>
				<g>
					<path class="st20" d="M384.1,80.9l3.2-1.9c1.8-1,1.8-2.7,0.1-3.7l-0.4-0.2l-6.4,3.8L384.1,80.9z"/>
				</g>
			</g>
		</g>
		<g>
			<g>
				<polygon class="st21" points="241.2,47.1 284.8,21.3 338.7,52.2 295.1,77.9 				"/>
			</g>
		</g>
		<g>
			<g>
				<polygon class="st21" points="303.9,75.4 334.5,57.3 337.7,59.1 307.1,77.2 				"/>
			</g>
		</g>
		<g>
			<g>
				<polygon class="st21" points="310.4,76.8 337,61.1 340.2,62.9 313.7,78.6 				"/>
			</g>
		</g>
		<g>
			<path class="st21" d="M342,69.4c-1.9,0.8-2.6,2.2-3.4,3.4c-2.2,3.2-4,6.5-5.5,9.8c-0.8,1.8-1.5,3.7-2,5.6
				c-0.3,0.9-0.6,1.8-0.7,2.7c0,0.8,0.3,1.5,1.5,1.9c0.3,0.1,0.7,0,0.9-0.2c4.2-3.2,8.1-6.6,11.6-10.1c-0.5,3-1,6.1-1.7,9.1
				c-0.1,0.5,1.2,0.5,1.3,0c0.8-3.6,1.5-7.1,2-10.7l0.1-0.1c0.6-0.2,1.1-0.3,1.7-0.5c0.8-0.2,0.1-0.8-0.6-0.7c1.4-1.5,2.8-3,4-4.5
				c0.3-0.3-0.3-0.7-0.9-0.5c-1.3,0.4-2.5,0.9-3.7,1.4c0-0.2,0.1-0.4,0.1-0.6c0.1-0.9,0.2-1.8,0.3-2.7c0.1-0.8,0.2-1.6-0.2-2.4
				C346,69.1,343.8,68.6,342,69.4z M349,75.9c-0.9,1.1-1.9,2.1-2.8,3.1c0.1-0.7,0.2-1.4,0.3-2C347.2,76.6,348.1,76.3,349,75.9z
				 M344.7,80.3c-2.1,0.6-4.2,1.3-6.1,2c1.8-1.7,3.9-3.2,6.5-4.6C344.9,78.6,344.8,79.4,344.7,80.3z M345.6,71.1
				c0.1,0.8,0,1.6-0.1,2.3c-0.1,0.8-0.2,1.6-0.2,2.4c0,0.3-0.1,0.5-0.1,0.8c-3.7,1.8-6.8,4.1-9,6.6c-0.3,0.3,0.3,0.7,0.9,0.5
				c2.2-0.9,4.5-1.7,6.9-2.4c-3.6,3.6-7.6,7.1-11.9,10.5c-0.6-0.5-0.4-1.2-0.3-1.8c0.2-0.7,0.4-1.5,0.6-2.2c0.5-1.5,1-3,1.6-4.5
				c1.3-3,2.8-5.9,4.7-8.8c0.5-0.8,1-1.5,1.5-2.2c0.4-0.6,0.8-1.1,1.4-1.6c0.5-0.4,1.2-0.9,2.1-0.9C345,69.7,345.5,70.5,345.6,71.1z
				"/>
		</g>
		<g>
			<g>
				<g>
					<polygon class="st21" points="248.2,30.6 107.9,113.4 101.3,109.7 241.6,26.8 					"/>
				</g>
			</g>
		</g>
		<g>
			<g>
				<g>
					<polygon class="st21" points="232.2,47.1 135.3,104.3 131.5,102.2 228.4,45 					"/>
				</g>
			</g>
		</g>
		<g>
			<g>
				<g>
					<polygon class="st21" points="233.3,72.2 157.4,117 153.6,114.8 229.5,70 					"/>
				</g>
			</g>
		</g>
		<g>
			<g>
				<g>
					<polygon class="st21" points="239.7,75.9 163.8,120.7 160.1,118.5 236,73.7 					"/>
				</g>
			</g>
		</g>
		<g>
			<g>
				<g>
					<polygon class="st21" points="194.2,110.3 170.3,124.4 166.6,122.2 190.4,108.1 					"/>
				</g>
			</g>
		</g>
		<g>
			<g>
				<g>
					<polygon class="st21" points="130.2,133 113,143.2 109.2,141 126.4,130.9 					"/>
				</g>
			</g>
		</g>
		<g>
			<g>
				<g>
					<polygon class="st21" points="147.8,137.7 125.9,150.6 122.2,148.4 144,135.6 					"/>
				</g>
			</g>
		</g>
		<g>
			<g>
				<g>
					<polygon class="st21" points="154.2,141.4 132.4,154.3 128.6,152.1 150.5,139.3 					"/>
				</g>
			</g>
		</g>
		<g>
			<g>
				<g>
					<polygon class="st21" points="167.2,148.8 155,156 151.2,153.8 163.4,146.7 					"/>
				</g>
			</g>
		</g>
		<g>
			<g>
				<g>
					<polygon class="st21" points="179.1,149.3 161.5,159.7 157.7,157.5 175.4,147.1 					"/>
				</g>
			</g>
		</g>
		<g>
			<g>
				<g>
					<polygon class="st21" points="146.8,130.8 119.5,146.9 115.7,144.7 143,128.6 					"/>
				</g>
			</g>
		</g>
		<g>
			<g>
				<g>
					<polygon class="st21" points="230.5,111.4 189.7,135.5 186,133.3 226.7,109.3 					"/>
				</g>
			</g>
		</g>
		<g>
			<g>
				<g>
					<polygon class="st21" points="198,115.6 176.8,128.1 173,125.9 194.2,113.4 					"/>
				</g>
			</g>
		</g>
		<g>
			<g>
				<g>
					<polygon class="st21" points="202,120.7 183.3,131.8 179.5,129.6 198.3,118.6 					"/>
				</g>
			</g>
		</g>
		<g>
			<g>
				<g>
					<polygon class="st21" points="160.7,145.1 148.5,152.3 144.8,150.1 156.9,143 					"/>
				</g>
			</g>
		</g>
		<g>
			<g>
				<g>
					<polygon class="st21" points="224.7,137.4 209.1,146.6 205.4,144.5 221,135.2 					"/>
				</g>
			</g>
		</g>
		<g>
			<g>
				<g>
					<polygon class="st21" points="198.8,152.7 165,172.6 161.3,170.5 195,150.6 					"/>
				</g>
			</g>
		</g>
		<g>
			<g>
				<g>
					<polygon class="st21" points="211.7,160.1 178,180.1 174.2,177.9 207.9,158 					"/>
				</g>
			</g>
		</g>
		<g>
			<g>
				<g>
					<polygon class="st21" points="218.6,126 196.2,139.2 192.4,137 214.9,123.8 					"/>
				</g>
			</g>
		</g>
		<g>
			<g>
				<g>
					<polygon class="st21" points="221.4,131.8 202.7,142.9 198.9,140.8 217.7,129.7 					"/>
				</g>
			</g>
		</g>
		<g>
			<g>
				<g>
					<polygon class="st21" points="177.3,157.9 158.6,168.9 154.8,166.8 173.6,155.7 					"/>
				</g>
			</g>
		</g>
		<g>
			<g>
				<g>
					<polygon class="st21" points="194.1,163.4 171.9,176.6 168.1,174.4 190.4,161.3 					"/>
				</g>
			</g>
		</g>
		<g>
			<g>
				<g>
					<polygon class="st21" points="212.4,167.2 184.4,183.8 180.7,181.6 208.7,165.1 					"/>
				</g>
			</g>
		</g>
		<g>
			<g>
				<g>
					<polygon class="st21" points="247.3,146.6 228.6,157.7 224.8,155.6 243.6,144.5 					"/>
				</g>
			</g>
		</g>
		<g>
			<g>
				<g>
					<polygon class="st21" points="236.2,145.7 222.1,154 218.3,151.9 232.5,143.5 					"/>
				</g>
			</g>
		</g>
		<g>
			<g>
				<g>
					<polygon class="st21" points="249.8,130.1 215.6,150.3 211.9,148.2 246.1,128 					"/>
				</g>
			</g>
		</g>
		<g>
			<g>
				<g>
					<polygon class="st21" points="112.2,129.4 100.8,136.2 95.4,133.1 106.9,126.4 					"/>
				</g>
			</g>
		</g>
		<g>
			<g>
				<path class="st21" d="M145,110.2l1.2-0.7l-4.7-2.7l-1.2,0.7c-0.1,0.1-0.2,0.1-0.4,0.1s-0.3,0-0.4-0.1c-0.1-0.1-0.2-0.1-0.2-0.2
					s0.1-0.2,0.2-0.2l2-1.2l5.4,3.1l0.8-0.5l-1.6-0.9c-0.1-0.1-0.2-0.1-0.2-0.2s0.1-0.2,0.2-0.2c0.1-0.1,0.2-0.1,0.4-0.1
					s0.3,0,0.4,0.1l2,1.2c0.1,0.1,0.2,0.1,0.2,0.2s-0.1,0.2-0.2,0.2l-3.2,1.9c-0.1,0.1-0.2,0.1-0.4,0.1s-0.3,0-0.4-0.1
					c-0.1-0.1-0.2-0.1-0.2-0.2C144.9,110.3,144.9,110.2,145,110.2z"/>
				<path class="st21" d="M155,105.2l-3.6,2.2l-2.7-1.6c-0.2-0.1-0.3-0.3-0.3-0.5s0.1-0.3,0.3-0.5l2.4-1.4l-1.9-1.1l-2.9,1.7
					c-0.1,0.1-0.2,0.1-0.4,0.1s-0.3,0-0.4-0.1c-0.1-0.1-0.2-0.1-0.2-0.2s0.1-0.2,0.2-0.2l2.9-1.7c0.2-0.1,0.5-0.2,0.8-0.2
					s0.6,0.1,0.8,0.2l1.9,1.1c0.2,0.1,0.3,0.3,0.3,0.5s-0.1,0.3-0.3,0.5l-2.4,1.4l1.9,1.1l2.8-1.7c0.1-0.1,0.2-0.1,0.4-0.1
					s0.3,0,0.4,0.1c0.1,0.1,0.2,0.1,0.2,0.2C155.1,105.1,155.1,105.1,155,105.2z"/>
				<path class="st21" d="M155.8,98.4l1.5,0.8c0.3,0.2,0.5,0.4,0.5,0.7c0.5,0,0.8,0.1,1.1,0.3l1.5,0.9c0.2,0.1,0.3,0.3,0.3,0.5
					s-0.1,0.3-0.3,0.5l-2.8,1.7c-0.1,0.1-0.2,0.1-0.4,0.1s-0.3,0-0.4-0.1c-0.1-0.1-0.2-0.1-0.2-0.2s0.1-0.2,0.2-0.2l2.8-1.7
					l-1.5-0.9c-0.1-0.1-0.2-0.1-0.4-0.1s-0.3,0-0.4,0.1l-1.6,1c-0.1,0.1-0.2,0.1-0.4,0.1s-0.3,0-0.4-0.1c-0.1-0.1-0.2-0.1-0.2-0.2
					s0.1-0.2,0.2-0.2l1.6-1c0.1-0.1,0.2-0.1,0.2-0.2s-0.1-0.2-0.2-0.2l-1.5-0.9l-2.9,1.7c-0.1,0.1-0.2,0.1-0.4,0.1s-0.3,0-0.4-0.1
					c-0.1-0.1-0.2-0.1-0.2-0.2s0.1-0.2,0.2-0.2l2.9-1.7c0.2-0.1,0.5-0.2,0.8-0.2C155.4,98.2,155.6,98.3,155.8,98.4z"/>
				<path class="st21" d="M165.4,98.6l-1.7-0.9l-2.4,1.4l-3.8-2.2c-0.1-0.1-0.2-0.1-0.2-0.2s0.1-0.2,0.2-0.2
					c0.1-0.1,0.2-0.1,0.4-0.1s0.3,0,0.4,0.1l3,1.7l1.6-0.9l-2.3-1.3c-0.1-0.1-0.2-0.1-0.2-0.2s0.1-0.2,0.2-0.2s0.2-0.1,0.4-0.1
					s0.3,0,0.4,0.1l2.3,1.3c0.1-0.1,0.2-0.1,0.4-0.1s0.3,0,0.4,0.1s0.2,0.1,0.2,0.2s-0.1,0.2-0.2,0.2l1.7,0.9
					c0.1,0.1,0.2,0.1,0.2,0.2s-0.1,0.2-0.2,0.2c-0.1,0.1-0.2,0.1-0.4,0.1C165.6,98.7,165.5,98.7,165.4,98.6z"/>
				<path class="st21" d="M169.7,95.6l1.9-1.1l-1.9-1.1l-2.4,1.4l-3.5-2l2.8-1.7c0.1-0.1,0.2-0.1,0.4-0.1s0.3,0,0.4,0.1
					c0.1,0.1,0.2,0.1,0.2,0.2s-0.1,0.2-0.2,0.2l-2,1.2l1.9,1.1l1.6-1c0.2-0.1,0.5-0.2,0.8-0.2s0.6,0.1,0.8,0.2l1.9,1.1
					c0.2,0.1,0.3,0.3,0.3,0.5s-0.1,0.3-0.3,0.5l-1.9,1.1c-0.2,0.1-0.4,0.2-0.6,0.2l-0.9,0.2c-0.2,0.1-0.4,0-0.6-0.1
					c-0.1-0.1-0.2-0.1-0.2-0.2s0-0.2,0.2-0.2c0.1,0,0.2-0.1,0.3-0.1l0.8-0.2C169.6,95.7,169.6,95.6,169.7,95.6z"/>
				<path class="st21" d="M169.1,89.6l0.4-0.2c0.1-0.1,0.2-0.1,0.4-0.1s0.3,0,0.4,0.1c0.1,0.1,0.2,0.1,0.2,0.2s-0.1,0.2-0.2,0.2
					l2.6,1.5l2.8-1.7c0.1-0.1,0.2-0.1,0.4-0.1s0.3,0,0.4,0.1l2,1.2c0.1,0.1,0.2,0.1,0.2,0.2s-0.1,0.2-0.2,0.2l-3.2,1.9
					c-0.1,0.1-0.2,0.1-0.4,0.1s-0.3,0-0.4-0.1l-5.4-3.1c-0.1-0.1-0.2-0.1-0.2-0.2C168.9,89.8,169,89.7,169.1,89.6z M173.7,91.8
					l1.2,0.7l2.4-1.4l-1.2-0.7L173.7,91.8z"/>
				<path class="st21" d="M175.3,86.8l-0.3-0.2c-0.1-0.1-0.2-0.1-0.2-0.2s0.1-0.2,0.2-0.2l3.6-2.1l2.4,1.4c0.1,0.1,0.2,0.2,0.2,0.3
					l-0.2,1.6l1.8,1.1c0.1,0.1,0.2,0.1,0.2,0.2s-0.1,0.2-0.2,0.2c-0.1,0.1-0.2,0.1-0.4,0.1s-0.3,0-0.4-0.1l-2-1.1
					c-0.2-0.1-0.2-0.2-0.2-0.3l0.2-1.6l-1.5-0.8l-2.4,1.4c0.2,0.2,0.1,0.3-0.1,0.4c-0.1,0.1-0.2,0.1-0.4,0.1
					C175.6,86.9,175.4,86.9,175.3,86.8z"/>
				<path class="st21" d="M185.9,86l-1.9-1.1c-0.2-0.1-0.3-0.3-0.3-0.5s0.1-0.3,0.3-0.5l-2.3-1.2c-0.1-0.1-0.2-0.1-0.2-0.2
					s0.1-0.2,0.2-0.2l1.6-1c0.1-0.1,0.2-0.1,0.4-0.1s0.3,0,0.4,0.1l2.3,1.3c0.2-0.1,0.5-0.2,0.8-0.2s0.6,0.1,0.8,0.2l1.9,1.1
					c0.2,0.1,0.3,0.3,0.3,0.5s-0.1,0.3-0.3,0.5l-2.4,1.4c-0.2,0.1-0.5,0.2-0.8,0.2C186.4,86.2,186.1,86.1,185.9,86z M184.8,84.4
					l1.9,1.1l2.4-1.4l-1.9-1.1L184.8,84.4z M182.9,82.4l1.9,1.1l0.8-0.5l-1.9-1.1L182.9,82.4z"/>
				<path class="st21" d="M196.3,80.8l-0.4,0.2c-0.1,0.1-0.2,0.1-0.4,0.1s-0.3,0-0.4-0.1s-0.2-0.1-0.2-0.2s0.1-0.2,0.2-0.2l-2.6-1.5
					l-2.8,1.7c-0.1,0.1-0.2,0.1-0.4,0.1s-0.3,0-0.4-0.1l-2-1.2c-0.1-0.1-0.2-0.1-0.2-0.2s0.1-0.2,0.2-0.2l3.2-1.9
					c0.1-0.1,0.2-0.1,0.4-0.1s0.3,0,0.4,0.1l5.4,3.1c0.1,0.1,0.2,0.1,0.2,0.2C196.4,80.7,196.4,80.8,196.3,80.8z M191.7,78.7
					l-1.2-0.7l-2.4,1.4l1.2,0.7L191.7,78.7z"/>
				<path class="st21" d="M197.8,79.1l-4.7-2.7c-0.2-0.1-0.3-0.3-0.3-0.4c0-0.2,0.1-0.3,0.3-0.5l2.5-1.5c0.2-0.1,0.5-0.2,0.8-0.2
					s0.6,0.1,0.8,0.2l4.7,2.7c0.2,0.1,0.3,0.3,0.3,0.4c0,0.2-0.1,0.3-0.3,0.4l-2.5,1.5c-0.2,0.1-0.5,0.2-0.8,0.2
					C198.2,79.2,198,79.2,197.8,79.1z M201,77.1l-4.7-2.7l-2.4,1.4l4.7,2.7L201,77.1z"/>
				<path class="st21" d="M203.6,75.6l-4.7-2.7c-0.2-0.1-0.3-0.3-0.3-0.4c0-0.2,0.1-0.3,0.3-0.5l2.5-1.5c0.2-0.1,0.5-0.2,0.8-0.2
					s0.6,0.1,0.8,0.2l4.7,2.7c0.2,0.1,0.3,0.3,0.3,0.4c0,0.2-0.1,0.3-0.3,0.4l-2.5,1.5c-0.2,0.1-0.5,0.2-0.8,0.2
					C204.1,75.8,203.9,75.7,203.6,75.6z M206.9,73.7l-4.7-2.7l-2.4,1.4l4.7,2.7L206.9,73.7z"/>
				<path class="st21" d="M209.5,72.1l-4.7-2.7c-0.2-0.1-0.3-0.3-0.3-0.4c0-0.2,0.1-0.3,0.3-0.5l2.5-1.5c0.2-0.1,0.5-0.2,0.8-0.2
					s0.6,0.1,0.8,0.2l4.7,2.7c0.2,0.1,0.3,0.3,0.3,0.4c0,0.2-0.1,0.3-0.3,0.4l-2.5,1.5c-0.2,0.1-0.5,0.2-0.8,0.2
					C210,72.3,209.8,72.2,209.5,72.1z M212.8,70.2l-4.7-2.7l-2.4,1.4l4.7,2.7L212.8,70.2z"/>
				<path class="st21" d="M215.4,68.6l-4.7-2.7c-0.2-0.1-0.3-0.3-0.3-0.4c0-0.2,0.1-0.3,0.3-0.5l2.5-1.5c0.2-0.1,0.5-0.2,0.8-0.2
					s0.6,0.1,0.8,0.2l4.7,2.7c0.2,0.1,0.3,0.3,0.3,0.4c0,0.2-0.1,0.3-0.3,0.4l-2.5,1.5c-0.2,0.1-0.5,0.2-0.8,0.2
					C215.9,68.8,215.7,68.7,215.4,68.6z M218.7,66.7L214,64l-2.4,1.4l4.7,2.7L218.7,66.7z"/>
				<path class="st21" d="M225.8,63.4l-3.6,2.2l-2.7-1.6c-0.2-0.1-0.3-0.3-0.3-0.5s0.1-0.3,0.3-0.5l2.4-1.4l-1.9-1.1l-2.9,1.7
					c-0.1,0.1-0.2,0.1-0.4,0.1s-0.3,0-0.4-0.1s-0.2-0.1-0.2-0.2c0-0.1,0.1-0.2,0.2-0.2l2.9-1.7c0.2-0.1,0.5-0.2,0.8-0.2
					s0.6,0.1,0.8,0.2l1.9,1.1c0.2,0.1,0.3,0.3,0.3,0.5s-0.1,0.3-0.3,0.5l-2.4,1.4l1.9,1.1L225,63c0.1-0.1,0.2-0.1,0.4-0.1
					s0.3,0,0.4,0.1s0.2,0.1,0.2,0.2C225.9,63.3,225.9,63.4,225.8,63.4z"/>
			</g>
		</g>
	</g>
</g>
<path id="XMLID_857_" class="st22" d="M499.3,201.8l121.9,70.9c4.3,2.5,9.8,2.2,13.8-0.7l15.8-11.8c2.7-2,2.4-6-0.5-7.7l-122.9-69.8
	c-3.7-2.1-8.4-1.9-11.9,0.7l-16.6,12.3C496.8,197.2,497,200.4,499.3,201.8z"/>
<path id="XMLID_852_" class="st22" d="M627.5,275.6c-2.4,0-4.8-0.6-7-1.9l-121.9-70.9c-1.4-0.8-2.3-2.3-2.4-4
	c-0.1-1.6,0.7-3.2,2-4.2l16.5-12.4c3.9-2.8,9.1-3.1,13.2-0.8l122.9,69.8c1.7,1,2.8,2.7,2.9,4.7c0.1,2-0.8,3.9-2.4,5l-15.6,12
	C633.3,274.7,630.4,275.6,627.5,275.6z M522,182.4c-2,0-4,0.6-5.7,1.9l-16.6,12.4c-0.7,0.5-1,1.2-1,2.1c0,0.8,0.5,1.5,1.2,1.9
	l121.9,70.9c3.9,2.3,8.8,2,12.4-0.7l15.8-11.8c0.9-0.7,1.4-1.7,1.4-2.9c-0.1-1.1-0.7-2.1-1.7-2.7l-123-69.8
	C525.2,182.9,523.6,182.4,522,182.4z"/>
<g>
	<path class="st23" d="M556.3,215.7l-12.2,9.2c-0.8,0.6-1.3,1.5-1.3,2.4l-0.9,11.1l5.8,3.4l0.9-11.1c0.1-1,0.6-1.9,1.4-2.5l11.6-8.7
		c0.7-0.5,0.6-1.6-0.2-2.1l-3.7-1.9C557.2,215.4,556.7,215.5,556.3,215.7z"/>
</g>
<g>
	<path class="st23" d="M585.5,232.5l-12.2,9.2c-0.8,0.6-1.3,1.5-1.3,2.4l-0.9,11.1l5.8,3.4l0.9-11.1c0.1-1,0.6-1.9,1.4-2.5l11.6-8.7
		c0.7-0.5,0.6-1.6-0.2-2.1l-3.7-1.9C586.4,232.2,585.8,232.2,585.5,232.5z"/>
</g>
<path class="st9" d="M601.1,302.8c0,0,3.6,3.4,0.5,5.7c-3.2,2.3-230.1,172.4-230.1,172.4"/>
<ellipse class="st1" cx="148.1" cy="181.2" rx="8.3" ry="4.7"/>
<path class="st2" d="M152.2,188.1c-1.2,0.4-2.6,0.6-4,0.6c-0.9,0-1.8-0.1-2.6-0.2l3.6-2.1L152.2,188.1z"/>
<g id="XMLID_52_">
	<path id="XMLID_56_" class="st16" d="M759.3,556.8V548l-144.1-2.8v7.6c-0.5,1.6,0.2,3.2,2.1,4.3l65.4,38.6c3.4,2,9.3,1.8,13.3-0.4
		l60.1-33.8C758.4,560.1,759.5,558.4,759.3,556.8z"/>
	<path id="XMLID_53_" class="st16" d="M688.6,598.1c-2.4,0-4.7-0.5-6.4-1.5l-65.4-38.7c-2.2-1.3-3.2-3.3-2.6-5.3v-8.5l146.1,2.9v9.8
		c0.2,2.1-1.2,4.1-3.8,5.6l-60.1,33.8C694.2,597.5,691.3,598.1,688.6,598.1z M616.2,546.1v6.8v0.1c-0.5,1.6,0.8,2.7,1.7,3.2
		l65.4,38.7c3.1,1.8,8.7,1.6,12.3-0.4l60.1-33.8c1.9-1.1,2.9-2.5,2.8-3.7v-0.1V549L616.2,546.1z"/>
</g>
<g id="XMLID_32_">
	<g>
		<path id="XMLID_41_" class="st17" d="M682.7,586.1l-65.4-38.7c-3.4-2-2.9-5.4,1-7.7l60.1-33.8c4-2.2,9.9-2.4,13.3-0.4l65.4,38.7
			c3.4,2,2.9,5.4-1,7.7l-60.2,33.8C692,587.9,686,588.1,682.7,586.1z"/>
		<path id="XMLID_38_" class="st17" d="M688.6,588.5c-2.4,0-4.7-0.5-6.4-1.5l0,0l-65.4-38.7c-1.8-1.1-2.8-2.6-2.7-4.2
			c0-1.9,1.4-3.8,3.8-5.2l60.1-33.8c4.3-2.4,10.6-2.6,14.3-0.4l65.4,38.7c1.8,1.1,2.8,2.6,2.7,4.2c0,1.9-1.4,3.8-3.8,5.2l-60.1,33.8
			C694.1,587.8,691.3,588.5,688.6,588.5z M685.8,505.1c-2.4,0-4.9,0.6-6.9,1.7l-60.1,33.8c-1.8,1-2.8,2.3-2.8,3.5s1,2,1.8,2.5
			l65.4,38.7c3,1.8,8.7,1.6,12.3-0.4l60.1-33.8c1.8-1,2.8-2.2,2.8-3.4s-1-2-1.8-2.5l-65.4-38.7C689.8,505.5,687.8,505.1,685.8,505.1
			z"/>
	</g>
</g>
<g id="XMLID_2_">
	<polygon id="XMLID_31_" class="st18" points="662.2,538.2 687.2,523.9 712.2,538.6 687.2,553 	"/>
	<polygon id="XMLID_22_" class="st18" points="662.2,538.2 662.2,547.3 687.2,562.1 687.2,553 	"/>
</g>
<g>
	<path class="st17" d="M693,525.5l-6.9-4.2l-39.8,23.5l6,3.6l8.6-5c-1.1-0.8-1-1.9,0.1-2.6c1.3-0.7,3.4-0.7,4.7,0.1s1.4,2.1,0.1,2.8
		c-1.2,0.7-3,0.7-4.4,0l-8.6,5l3.9,2.3l6.7-3.9l0.6,0.4l-6.7,3.9l8.2,4.9l16.5-9.5c0,0,1.7-0.9,1.6-2.2c0-0.8-0.6-1.5-1.8-2.3
		l-3.6-2.2c-1.3,0.6-3.2,0.5-4.4-0.3c-1.3-0.8-1.4-2.1-0.1-2.8c1.3-0.7,3.4-0.7,4.7,0.1c1.2,0.7,1.4,1.9,0.4,2.6l3.6,2.2
		c1.4,0.8,2.1,1.7,2.1,2.6c0,1.4-1.6,2.4-1.8,2.5l0,0l-16.5,9.5l5.2,3.1l19.7-11.3c-1.1-0.8-1-1.9,0.2-2.6c1.3-0.7,3.4-0.7,4.8,0.1
		c1.3,0.8,1.4,2.1,0.1,2.8c-1.2,0.7-3.1,0.7-4.4,0L672,559.9l3.5,2.1l13.6-7.8c0,0,3.3-1.7,7.1,0.6l8.7,5.2l9.1-5.1l-6.4-3.9
		l0.6-0.3l6.5,3.9l3.2-1.8l-8.2-4.9c-1.3,0.6-3.2,0.5-4.5-0.3s-1.4-2.1-0.1-2.8c1.3-0.7,3.4-0.7,4.8,0.1c1.2,0.7,1.4,1.9,0.3,2.6
		l8.2,4.9l2.9-1.7l-4.8-2.9l0.6-0.3l4.8,2.9l6.9-3.9l-28.9-16.8l-8.9,5.2c1.1,0.8,1,1.9-0.2,2.6c-1.3,0.7-3.4,0.7-4.8-0.1
		c-1.3-0.8-1.4-2.1-0.1-2.8c1.2-0.7,3.1-0.7,4.4-0.1l8.9-5.2l-5.7-3.5l-6.5,3.8l-0.6-0.4L693,525.5z"/>
	<path class="st17" d="M689.1,562.6c-1.2,0.7-3,0.7-4.4,0l-4.5,2.6l7.7,4.6l16.3-9.2l-8.7-5.2c-3.2-1.9-5.8-0.6-5.9-0.6l-13.6,7.8
		l3.7,2.2l4.5-2.6c-1-0.8-1-1.9,0.2-2.5c1.3-0.7,3.4-0.7,4.7,0.1C690.3,560.7,690.4,561.9,689.1,562.6z"/>
	<path class="st16" d="M703.2,517.1l-1.8-1.1l-7,4.1l-4.5-2.7c-2.2-1.3-5.7-1.4-7.9-0.1l-4.3,2.6l-7.3-4.4l-1.7,1l7.2,4.4l-3.7,2.2
		l-7.2-4.4l-1.7,1l7.2,4.3l-3.7,2.2l-7.2-4.3l-1.7,1l7.2,4.3l-3.7,2.2l-7.2-4.3l-1.7,1l7.2,4.3l-3.7,2.2l-7.2-4.3l-1.7,1l7.2,4.3
		l-3.7,2.2l-7.2-4.3l-1.7,1l7.2,4.3l-3.6,2.2l-7.1-4.3l-1.7,1l7.1,4.3l-4.1,2.5c-2,1.2-1.9,3.2,0.3,4.5l4.4,2.6l-6.5,3.9l1.8,1.1
		l6.6-3.9l3.9,2.3l-6.6,3.8l1.8,1.1l6.6-3.8l3.9,2.3l-6.6,3.8l1.8,1.1l6.6-3.8l3.9,2.3l-6.6,3.8l1.8,1.1l6.6-3.8l3.9,2.3l-6.6,3.8
		l1.8,1.1l6.6-3.8l3.9,2.3l-6.6,3.8l1.8,1.1l6.6-3.8l3.9,2.3l-6.7,3.8l1.8,1.1l6.7-3.8l4.4,2.6c2.1,1.3,5.6,1.4,7.6,0.2l4.2-2.4
		l7.1,4.2l1.7-1l-7.1-4.2l3.7-2.1l7.1,4.2l1.7-1l-7.1-4.2l3.7-2.1l7.1,4.3l1.7-1l-7.1-4.3l3.8-2.1l7.1,4.3l1.8-1l-7.1-4.3l3.8-2.1
		l7.1,4.3l1.8-1l-7.1-4.3l3.8-2.1l7.1,4.3l1.8-1l-7.2-4.3l3.8-2.1l7.2,4.3l1.8-1l-7.2-4.3l4.4-2.5c2.2-1.2,2.1-3.3-0.1-4.6l-4.5-2.7
		l7.1-4l-1.8-1.1l-7.1,4l-4-2.4l7.1-4l-1.8-1.1l-7.1,4l-4-2.4l7.1-4.1l-1.8-1.1l-7.1,4.1l-4-2.4l7.1-4.1l-1.8-1.1l-7.1,4.1l-4-2.4
		l7-4.1l-1.8-1.1l-7,4.1l-4-2.4l7-4.1l-1.8-1.1l-7,4.1l-4-2.4L703.2,517.1z M731,547l-43,24.1l-44.1-26.4l42.1-24.9L731,547z"/>
	<path class="st1" d="M686,534.6c-1.3,0.8-1.2,2,0.1,2.8s3.5,0.9,4.8,0.1c1.2-0.7,1.2-1.8,0.2-2.6l8.9-5.2l-0.6-0.4l-8.9,5.2
		C689.1,533.9,687.1,533.9,686,534.6z"/>
	<path class="st1" d="M684.1,562.3l-4.5,2.6l0.6,0.4l4.5-2.6c1.3,0.6,3.2,0.6,4.4,0c1.3-0.7,1.2-1.9-0.1-2.7s-3.4-0.9-4.7-0.1
		C683.1,560.4,683.1,561.5,684.1,562.3z"/>
	<path class="st1" d="M683.7,544.6c0,1.3-1.6,2.2-1.6,2.2l-16.5,9.5l0.6,0.4l16.5-9.5l0,0c0.3-0.2,1.9-1.1,1.8-2.5
		c0-0.9-0.7-1.8-2.1-2.6l-3.6-2.2c1-0.8,0.9-1.9-0.4-2.6c-1.3-0.8-3.5-0.9-4.7-0.1c-1.3,0.7-1.2,2,0.1,2.8c1.2,0.7,3.1,0.8,4.4,0.3
		l3.6,2.2C683.1,543.1,683.7,543.9,683.7,544.6z"/>
	<path class="st1" d="M671.3,559.9l0.6,0.4l19.8-11.3c-0.1-0.1-0.2-0.1-0.3-0.2c-0.1-0.1-0.2-0.1-0.3-0.2L671.3,559.9z"/>
	<path class="st1" d="M704.8,560.4l-8.7-5.2c-3.8-2.3-7-0.6-7.1-0.6l-13.6,7.8l0.6,0.4l13.6-7.8c0.1-0.1,2.7-1.4,5.9,0.6l8.7,5.2
		L704.8,560.4z"/>
	<path class="st1" d="M717.6,553.1l0.6-0.3l-8.2-4.9c-0.1,0.1-0.2,0.1-0.3,0.2c-0.1,0.1-0.2,0.1-0.3,0.1L717.6,553.1z"/>
	<polygon class="st1" points="714.5,554.9 708,551.1 707.4,551.4 713.9,555.3 	"/>
	<polygon class="st1" points="721.7,550.8 716.9,547.9 716.3,548.3 721.2,551.2 	"/>
	<polygon class="st1" points="693.6,525.9 693,525.5 686.4,529.3 687.1,529.7 	"/>
	<path class="st1" d="M652.2,548.5l0.6,0.4l8.6-5c-0.1-0.1-0.2-0.1-0.3-0.2c-0.1-0.1-0.2-0.1-0.3-0.2L652.2,548.5z"/>
	<polygon class="st1" points="664,547.6 663.4,547.2 656.7,551.1 657.3,551.5 	"/>
	<path class="st19" d="M731,547l-45-27.1l-42.1,24.9l44.1,26.4L731,547z M680.2,565.2l-0.6-0.4l-3.7-2.2l-0.6-0.4l-3.5-2.1l-0.6-0.4
		l-5.2-3.1l-0.6-0.4l-8.2-4.9l-0.6-0.4l-3.9-2.3l-0.6-0.4l-6-3.6l39.8-23.5l6.9,4.2l0.6,0.4l5.7,3.5l0.6,0.4l28.7,17.3l-6.9,3.9
		l-0.6,0.3l-2.9,1.7l-0.6,0.3l-3.2,1.8l-0.6,0.3l-9.1,5.1l-0.6,0.3l-16.3,9.2L680.2,565.2z"/>
	<path class="st1" d="M660.8,543.4c0.1,0.1,0.2,0.1,0.3,0.2c0.1,0.1,0.2,0.1,0.3,0.2c1.3,0.6,3.2,0.6,4.4,0c1.3-0.7,1.2-2-0.1-2.8
		s-3.4-0.9-4.7-0.1C659.7,541.5,659.7,542.6,660.8,543.4z"/>
	<path class="st1" d="M691.1,548.6c0.1,0.1,0.2,0.1,0.3,0.2c0.1,0.1,0.2,0.1,0.3,0.2c1.3,0.6,3.2,0.6,4.4,0c1.3-0.7,1.2-2-0.1-2.8
		s-3.5-0.9-4.8-0.1C690,546.6,690,547.8,691.1,548.6z"/>
	<path class="st1" d="M705,548c1.2,0.7,3.2,0.8,4.5,0.3c0.1,0,0.2-0.1,0.3-0.1c0.1-0.1,0.2-0.1,0.3-0.2c1-0.8,0.9-1.9-0.3-2.6
		c-1.3-0.8-3.5-0.9-4.8-0.1C703.6,545.9,703.7,547.2,705,548z"/>
</g>
</svg>
